<?xml version="1.0" encoding="utf-8"?>
<svg version="1.1" id="Layer_1" xmlns="http://www.w3.org/2000/svg" xmlns:xlink="http://www.w3.org/1999/xlink" x="0px" y="0px"
	 viewBox="0 0 2640.2 783" style="enable-background:new 0 0 2640.2 783;" xml:space="preserve">
<g>
	<path d="M555.7,102.6c-47.8-61-134.5-56.7-188.1-5.9c-50.3,47.7-51,139.1-4.8,189.1C485.2,418.7,663,239.3,555.7,102.6z
		 M433.2,310.6c-63.4-14.1-101.1-75.4-91.6-138c9.5-62.3,72.2-108.2,134.6-101C631.6,89.5,591.1,353.7,433.2,310.6z"/>
	<path d="M534.8,478.5c-31.9-24.6-67.8-23.3-107.4-18.1c-185.6,129.1-49.8,296.7,80.7,258.3C590.8,694.5,647.8,565.4,534.8,478.5z
		 M551.5,677.8c-46.8,39.7-127.1,47.9-169-2.7c-105.1-126.8,62.2-269.4,173.5-159.3C595.6,554.9,593.7,642,551.5,677.8z"/>
	<path d="M1943.1,336.3c-25.3-9.3-32.2-40.8-64.8-30c-12.2,4-17.5,15.2-33.8,5.6c-8.7-5.1-12.9-19.4-18-27.7
		c-48.6-79.3-121.6-57.5-247.6-57.4c-900.2,0.8-843.1,14.5-866.4,1c-6.5-3.7-15.6-21-24.1-16.3c-15,8.3,10.6,114-9,130.3
		c-18.6,15.5-66.5,12.2-89.2,13.2c-16.5,0.7-72.7,9.8-50.2-21.6c10-14,34.4-17.4,57.4-62.9C652.7,161.8,568.7,28.3,460.8,30
		c-158.5,2.5-207.5,212-105.1,288.9c8.1,6.1,39.4,17.8,39.2,29.4c-0.3,22-43.9-0.4-47.4,0.1c-8.5,1-7,6.7-13.8,10.2
		c-9.7,5.1-32.6,10.6-43.3,3c-13.2-9.3-12.8-65.4-84.7-92.3c-43.6-16.3-135.1-31.8-88.1-94.9C66.7,145.8-6.5,237,80.3,275.8
		C137.8,301.5,235,301.5,246.8,380c4.8,31.9-4.7,60.9-22.1,87.7c-19.5,30-49.2,34.3-76.5,53.7c-64.6,45.9,65.5,78,125-54.3
		c6.9-15.4,7.1-36.7,15.5-50.6c6.5-10.7,19.8-17.4,33.9-11.6c6.5,2.6,6.8,7.6,12.2,10.8c10.1,6.1,7.4,4.6,21,2.9
		c10.5-1.4,34.3-4.5,39.7,10.1c5.1,13.7-17.8,30.6-25.5,38.5C195.6,647,437.8,840.2,580,710.7c47.8-43.6,60.8-135.2,30.4-191.3
		c-29.8-55-147.8-101.4,11-99c63.6,1,59.4,14,60.5,53.5c0.5,19-9.9,100.9,13,104c9.3,1.2,24.1-14.8,34.2-17.1
		c15.4-3.4,577.6,3.3,642.1-0.1c273.6-14.3,390.1,21.4,442.8-50.5c2-2.7,25.3-43.1,45.8-45.8c9.6-1.3,12.3,5,20.9,5.9
		c12.7,1.3,27.6-6.9,35.6-16.2c7.3-8.4,5.7-12,16.2-18c8.4-4.8,20.4-6.5,29.5-9.7c44.8-15.8,86-26,133.8-26.4
		c102.6-0.9,205.5,3.5,308.1,4.8c37.1,0.5,74.2,0.9,111.3,1.4c17.6,0.2,78,11,84.8-14.2c-0.3,1.1-129.8-8.7-140.4-9
		c-88-2.1-176-1.6-263.8-4.6C2110.3,375.5,2024,365.9,1943.1,336.3z M362.7,285.8c-46.1-50.1-45.5-141.4,4.8-189.1
		c53.6-50.8,140.3-55.1,188.1,5.9C663,239.3,485.2,418.7,362.7,285.8z M508.1,718.7c-130.5,38.3-266.3-129.2-80.7-258.3
		c39.6-5.2,75.5-6.4,107.4,18.1C647.8,565.4,590.8,694.5,508.1,718.7z"/>
</g>
</svg>
