<?xml version="1.0" encoding="utf-8"?>
<!-- Generator: Adobe Illustrator 16.0.0, SVG Export Plug-In . SVG Version: 6.00 Build 0)  -->
<!DOCTYPE svg PUBLIC "-//W3C//DTD SVG 1.1//EN" "http://www.w3.org/Graphics/SVG/1.1/DTD/svg11.dtd" [
	<!ENTITY ns_extend "http://ns.adobe.com/Extensibility/1.0/">
	<!ENTITY ns_ai "http://ns.adobe.com/AdobeIllustrator/10.0/">
	<!ENTITY ns_graphs "http://ns.adobe.com/Graphs/1.0/">
	<!ENTITY ns_vars "http://ns.adobe.com/Variables/1.0/">
	<!ENTITY ns_imrep "http://ns.adobe.com/ImageReplacement/1.0/">
	<!ENTITY ns_sfw "http://ns.adobe.com/SaveForWeb/1.0/">
	<!ENTITY ns_custom "http://ns.adobe.com/GenericCustomNamespace/1.0/">
	<!ENTITY ns_adobe_xpath "http://ns.adobe.com/XPath/1.0/">
]>
<svg version="1.1" id="Layer_1" xmlns:x="&ns_extend;" xmlns:i="&ns_ai;" xmlns:graph="&ns_graphs;"
	 xmlns="http://www.w3.org/2000/svg" xmlns:xlink="http://www.w3.org/1999/xlink" x="0px" y="0px" width="612px" height="792px"
	 viewBox="0 0 612 792" enable-background="new 0 0 612 792" xml:space="preserve">
<metadata>
	<sfw  xmlns="&ns_sfw;">
		<slices></slices>
		<sliceSourceBounds  width="468.578" height="434.405" bottomLeftOrigin="true" y="-614.275" x="72.422"></sliceSourceBounds>
	</sfw>
</metadata>
<g>
	<path stroke="#FFFFFF" stroke-width="6.0132" d="M536.236,311.284c-3.318-6.203-6.281-12.771-9.178-19.375
		c-2.916-6.621-6.988-12.59-9.182-19.377c-0.154-0.352-0.977-0.037-1.016-0.51c-3.414-6.521-6.824-13.064-10.965-18.859
		c-0.16-0.539-0.676-1.139-0.252-1.533c-6.576-6.934-11.877-15.15-19.637-20.904c-2.182-4.688-5.746-9.098-8.404-12.492
		c-1.639-0.186-2.594,0.301-4.082,0.258c-3.588-3.684-12.924-4.715-18.104-1.785c-2.105-0.254-4.137-1.184-6.375-1.783
		c-2.771-0.748-6.439-2.023-9.174-2.037c-1.625-0.016-3.189,0.883-4.844,0.762c-2.078-0.146-4.498-1.266-6.627-1.783
		c-6.902-1.682-13.307-3.633-18.867-6.373c0.812-2.676,0.357-6.615-1.783-8.412c-6.275-5.283-17.098-6.209-24.732-8.672
		c-5.217-0.08-9.545-0.91-14.273-1.523c-4.752-0.621-10.156-1.023-14.275-1.533c-16.205-1.992-33.184-3.186-47.932-1.783
		c-0.051-0.287-0.277-0.395-0.51-0.51c-0.102-0.434-0.33,0.055-0.762,0c-12.906,1.203-28.41,0.906-39.52,3.059
		c-6.512,1.264-13.16,1.297-19.369,2.807c-4.74,1.15-9.18,3.529-14.277,4.08c-5.662,3.646-14.461,6.143-13.258,15.039
		c-13.469,4.799-24.428,12.971-41.553,9.943c-3.449-4.787-10.236-1.672-15.297-2.039c-3.551,3.166-7.881,5.551-9.945,10.199
		c-2.539,0.264-3.248,2.357-5.607,2.803c-8.242,6.887-15.404,14.848-22.943,22.438c-0.125,1.488-1.619,1.609-1.785,3.057
		c-1.094-0.242-0.986,0.717-1.787,0.768c-0.807,1.914-2.227,3.211-3.822,4.33c-4.141,5.225-6.879,10.41-11.471,15.297
		c-0.469,2.428-2.119,3.662-3.574,5.1c-8.74,13.393-16.867,28.324-23.705,42.832c0.277,2.197-2.564,4.637-1.785,6.627
		c0.613,1.549,3.445,2.723,4.592,3.568c0.881,0.652,1.621,1.799,2.549,2.551c2.988,2.43,5.674,4.861,8.67,7.137
		c6,4.559,12.279,8.67,18.354,12.748c4.746,3.186,9.684,6.26,14.275,9.432c1.652,7.949,3.662,15.545,5.867,22.945
		c2.322,0.988,3.93,2.693,6.117,3.82c0.502,7.891,10.256,12.885,16.824,7.395c8.947,4.129,16.164,7.508,26.514,9.688
		c1.67,6.324,8.004,8.9,11.215,13.77c1.881,2.852,1.881,6.344,4.078,9.43c0.277,3.154,1.105,4.824,1.785,7.391
		c4.211,15.887,8.682,35.312,4.332,54.305c-6.371-0.227-9.852,4.527-14.02,7.902c-0.83,2.988-3.152,7.484-1.785,11.469
		c-1.711,1.859-3.324,3.814-5.352,5.357c-0.547,1.326-0.625,3.115-2.041,3.568c0.527,1.49-0.826,2.773-1.021,4.332
		c-1.434,5.918,3.021,10.584,6.375,14.023c-0.25,3.121-1.137,5.654-0.764,8.16c6.613,8.51,17.996,12.248,26.256,19.115
		c0.715,0.137,1.328,0.377,2.039,0.508c10.221,6.451,21.939,13.516,32.377,19.631c1.697,0.994,2.768,1.379,4.334,2.295
		c2.961,1.736,5.982,3.568,9.174,5.354c6.08,3.404,12.33,5.738,18.873,8.668c10.49,4.717,25.133,9.637,39,6.117
		c9.234-2.338,18.18-6.551,26.006-10.703c0.869-0.064,1.221-0.645,2.293-0.51c27.604-16.342,55.701-34.131,75.969-58.633
		c0.947-3.703,2.559-8.078,1.271-12.746c1.125-1.621,1.93-3.994,2.045-5.867c0.025-0.48-0.732-0.188-0.768-1.018
		c-0.016-0.471,0.791-0.781,0.768-1.02c-0.035-0.24-0.459-0.742-0.51-1.02c-0.396-2.051-0.234-1.738-1.021-3.314
		c-0.244-0.49-0.674-1.082-0.768-1.525c-1.477-7.342,0.994-15.934-2.801-23.199c-2.59-2.002-3.953-5.23-6.883-6.891
		c-0.285-6.146-0.947-13.027-0.768-19.877c0.494-18.662,5.197-39.303,17.588-46.654c3.73-0.973,6.066-4.609,9.434-5.098
		c0.67-2.35,3.121-3.258,4.59-4.844c1.418-1.539,2.348-3.348,3.82-4.848c5.137,0.738,11.59-0.529,17.082-2.039
		c2.059,1.328,5.725,1.705,8.92,1.275c4.326-0.578,6.984-2.568,8.416-4.844c0.973-1.549,2.004-2.551,2.293-4.334
		c2.93-1.578,6.07-2.943,8.92-4.588c3.154-11.346,3.924-20.693,5.611-32.375c1.076,0.219,0.629-0.908,1.02-1.277
		c1.137-1.068,3.258-2.047,4.846-3.312c1.525-1.223,2.998-2.443,4.588-3.572c9.863-7.008,18.303-13.996,26.512-22.176
		c1.838-1.834,4.383-3.775,5.1-5.609C538.865,316.61,535.721,313.808,536.236,311.284z"/>
	
		<linearGradient id="SVGID_1_" gradientUnits="userSpaceOnUse" x1="227.002" y1="584.2256" x2="400.6074" y2="584.2256" gradientTransform="matrix(1 0 0 -1 0 794)">
		<stop  offset="0.0038" style="stop-color:#CCC7C0"/>
		<stop  offset="1" style="stop-color:#221C1D"/>
	</linearGradient>
	<path fill="url(#SVGID_1_)" d="M227.002,204.468c0.758-2.217,2.061-3.891,3.564-5.357c8.951-4.115,18.381-5.805,28.809-7.393
		c1.807-0.273,3.826-1.344,6.373-0.508c7.266-2.32,14.682-1.613,21.412-2.295c8.049-0.811,18.506-1.029,27.279-1.02
		c1.75,0.002,3.646,0.418,5.354,0.508c11.508,0.619,22.072,0.59,34.674,2.553c1.875,0.293,4.01,0.434,6.629,0.51
		c3.789,0.105,9.811,0.539,14.529,1.271c8.855,1.379,16.805,1.514,23.705,5.357c-0.027,0.963,0.502,1.367,1.277,1.529
		c-0.453,2.371-0.131,4.721-1.277,7.391c-8.703,12.115-26.797,14.844-42.826,19.633c-3.293,0.109-8.033,0.965-12.49,1.783
		c-4.365,0.805-8.008,1.264-13.258,1.787c-2.66,0.266-5.258,1.158-7.902,1.275c-9.648,0.432-19.338-0.01-28.805-1.275
		c-2.75-0.365-5.564-1.279-8.412-1.787c-2.805-0.49-5.303-0.955-7.395-1.527c-5.303-1.451-10.822-1.951-16.061-3.061
		c-3.205-0.678-6.285-2.404-9.43-3.312c-8.99-2.594-18.195-6.545-24.732-12.492C228.326,206.202,227.369,205.628,227.002,204.468z
		 M379.193,197.075c-4.102-1.359-7.971-1.734-12.488-2.553c-2.732-0.49-5.17-1.529-7.906-1.785
		c-12.244-1.113-24.234-1.404-37.98-1.781c-0.461-0.324-1.189,0.197-2.293,0.258c-10.252,0.547-20.576-0.062-33.908,0.506
		c-9.443,0.408-17.217,1.154-27.021,2.803c-4.203,0.713-12.191,1.834-12.492,4.848c-0.242,2.395,2.633,2.221,3.566,3.822
		c5.912,2.289,10.199,4.643,16.318,6.623c7.883,1.125,15.514,4.074,23.963,4.592c10.078,0.619,22.232,1.484,33.395,1.783
		c5.426,0.15,11.453-0.049,16.059-0.506c3.334-0.338,6.852-1.109,10.199-1.789c3.324-0.67,6.754-0.639,9.943-1.271
		c5.955-1.186,11.656-3.426,17.594-4.334c2.221-1.514,5.139-2.338,7.133-4.08c0.365-1.775-0.037-2.744,0.51-4.332
		C382.344,198.05,381.543,197.851,379.193,197.075z"/>
	<path fill="#2E2628" d="M368.742,205.233c-0.766,0-1.527,0-2.291,0c-0.658,0.365-1.295,0.746-1.791,1.273
		c-5.115,1.104-9.67,1.721-14.529,2.803c-0.793,0.178-1.578,0.104-2.039,1.021c-3.594-0.162-7.625,0.709-11.725,1.016
		c-3.807,0.291-7.861,1.309-11.219,1.023c-4.406-0.375-10.506-0.045-15.549-0.258c-1.58-0.064-3.188-0.67-4.846-0.768
		c-7.545-0.438-13.846-0.625-20.646-2.293c-4.93-1.205-9.961-1.875-14.275-3.061c-4.586-1.254-8.791-2.773-11.986-5.355
		c5.494-0.617,12.238-2.947,19.375-3.82c2.418-0.295,5,0.068,7.395,0c8.615-0.246,17.123-1.391,26.002-1.529
		c5.525-0.088,13.037-0.443,19.119-0.256c9.215,0.281,21.658,0.842,32.887,2.803c3.355,0.588,9.246,0.984,9.941,2.553
		C373.43,202.333,370.143,204.058,368.742,205.233z"/>
	
		<linearGradient id="SVGID_2_" gradientUnits="userSpaceOnUse" x1="314.6611" y1="554.9961" x2="446.2441" y2="554.9961" gradientTransform="matrix(1 0 0 -1 0 794)">
		<stop  offset="0.0038" style="stop-color:#CCC7C0"/>
		<stop  offset="1" style="stop-color:#221C1D"/>
	</linearGradient>
	<path fill="url(#SVGID_2_)" d="M446.244,221.546c-4.279,2.707-11.07,4.986-10.965,10.455c-11.719,0.898-23.178,4.146-35.949,6.117
		c-3.594,0.557-7.75,1.26-10.703,2.295c-1.725,0.602-4.215,0.277-6.375,0.766c-5.418,1.213-10.82,2.951-16.061,3.824
		c-1.436,0.238-2.932-0.123-4.328,0.254c-7.654,2.031-16.686,3.814-24.736,5.861c-2.439,0.625-4.979,1.654-7.391,2.299
		c-4.48,1.195-8.09,2.203-11.727,4.588c-3.648-1.121-1.455-7.91-3.312-10.197c-0.33-3.48,1.711-4.578,2.295-7.135
		c1.436-0.859,3.055-1.535,3.822-3.062c6.229-2.412,13.572-3.676,18.867,0.764c0.65,1.904,0.775,4.324,1.781,5.867
		c3.199-0.365,5.303-1.838,8.158-2.553c16.252-6.578,36.439-10.893,54.049-14.018c3.645-0.648,7.336-2.068,10.961-2.805
		c3.123-0.635,6.195-1.078,9.176-1.783c5.434-1.291,10.426-2.23,14.279-3.064c0.611-0.131,1.807,0.621,2.551,0.766
		C442.498,221.147,444.697,220.667,446.244,221.546z"/>
	
		<linearGradient id="SVGID_3_" gradientUnits="userSpaceOnUse" x1="309.9814" y1="543.0332" x2="203.2451" y2="566.0843" gradientTransform="matrix(1 0 0 -1 0 794)">
		<stop  offset="0.0038" style="stop-color:#CCC7C0"/>
		<stop  offset="1" style="stop-color:#221C1D"/>
	</linearGradient>
	<path fill="url(#SVGID_3_)" d="M285.637,243.728c1.197-1.092,2.162-2.42,2.801-4.08c1.691,0.164,1.746-1.309,2.805-1.785
		c4.158-1.197,6.668-0.354,10.195-0.254c-0.01,0.773,0.541,0.988,0.768,1.527c0.953-0.02,1.766,0.107,2.297,0.51
		c5.219,3.803,7.59,16.936,1.273,21.928c-15.162-11.258-35.977-15.662-57.109-20.902c-5.314-0.135-12.389-2.783-17.844-4.08
		c-5.605-1.336-11.596-2.723-16.059-3.826c-4.932-1.217-10.289-1.494-14.535-2.805c0.455-2.857-3.602-3.344-4.33-5.863
		c1.883-0.75,4.291-0.982,5.867-2.037c0.689,0.156,2.021-0.324,2.295,0.256c2.137-1.73,7.123-0.316,9.941-0.51
		c0.521,0.068,0.508,0.678,0.77,1.018c6.977,0.598,15.094,2.629,21.664,5.1c5.938,0.684,12.527,3.369,18.867,5.354
		c2.842,0.893,6.064,1.051,8.16,3.061c4.375,0.176,8.207,2.973,12.996,3.568C279.018,241.671,282.9,242.128,285.637,243.728z"/>
	<path fill="#D2D1CB" d="M196.152,228.685c-1.902-0.467-2.51-1.824-4.076-2.037C193.477,225.497,195.4,227.558,196.152,228.685z"/>
	<path d="M465.871,237.862c0.857-9.416,16.615-3.688,9.436,3.57C471.045,243.036,468.088,239.896,465.871,237.862z M467.908,237.608
		c1.322,0.133,1.127-1.25,2.295-1.275c1.131,0.402,0.703,2.359,1.533,3.061c1.752,0.309,2.395-0.496,3.059-1.275
		C475.041,234.114,468.131,233.366,467.908,237.608z"/>
	<path d="M158.424,233.53c7.039-1.393,5.254,10.715-0.508,10.705C152.545,244.228,153.139,234.573,158.424,233.53z M157.916,241.94
		c1.869-1.018,3.4-2.852,3.055-5.35C158.594,234.851,154.611,240.13,157.916,241.94z"/>
	
		<linearGradient id="SVGID_4_" gradientUnits="userSpaceOnUse" x1="87.8047" y1="500.8213" x2="148.6387" y2="500.8213" gradientTransform="matrix(1 0 0 -1 0 794)">
		<stop  offset="0" style="stop-color:#D40000"/>
		<stop  offset="0.928" style="stop-color:#1B0A0B"/>
	</linearGradient>
	<path fill="url(#SVGID_4_)" d="M148.229,234.04c0.453-0.068,0.52,0.244,0.254,0.258c-3.719,6.229-7.43,12.455-10.963,18.867
		c0.205,3.506-2.238,5.012-2.805,8.41c-0.486,0.479-0.465-0.152-1.275,0c-1.955,7.896-5.992,15.082-6.377,23.707
		c-0.076,0.596-0.783,0.57-1.018,1.02c-2.951,14.994-5.051,32.953-5.354,47.672c-0.066,3.396,0.492,7.09-0.256,9.941
		c1.057,2.738,0.123,5.996,1.275,8.412c-3.572-0.707-6.479-3.316-9.432-5.352c-8.822-6.078-17.223-13.555-24.475-21.416
		c1.506-5.287,3.439-9.297,4.844-15.043c3.393-6.096,6.289-13.496,9.688-19.883c2.715-5.104,6.629-9.521,9.43-14.531
		c0.393-0.699,0.373-1.615,0.768-2.295c0.877-1.51,2.371-2.678,3.314-4.078c5.654-8.42,14.744-18.035,22.432-26.002
		c1.311-1.355,2.787-2.66,4.082-4.08C144.443,237.368,146.021,235.905,148.229,234.04z"/>
	<g>
		<path fill="#2E2628" d="M423.807,216.702c-1.41,1.82-4.109,0.943-5.859,1.275c-12.799,2.441-25.707,6.535-37.988,9.691
			c-11.207,2.873-23.723,7.059-35.436,10.703c0.275-1.975-1.623-3.127-1.529-4.076c3.549-0.771,7.801-0.631,10.965-2.295
			c12.885-1.928,24.291-5.846,34.928-9.943c5.305-2.045,10.115-5.098,14.785-8.162c0.326-1.283,1.732-1.492,2.033-2.803
			C411.895,212.812,417.121,215.487,423.807,216.702z"/>
		<path fill="#2E2628" d="M238.471,222.821c-6.508-1.592-15.699-4.533-22.688-6.373c2.75-3.26,8.014-3.197,10.455,0.254
			C230.322,218.735,234.844,220.333,238.471,222.821z"/>
		<path fill="#2E2628" d="M253.516,227.413c11.385,2.844,21.426,4.607,34.16,6.371c-1.33,1.727-3.479,2.645-4.844,4.334
			c-4.99-1.393-9.562-3.055-13.514-4.846C263.783,231.589,258.092,230.058,253.516,227.413z"/>
		<path fill="#2E2628" d="M306.537,235.062c3.418,0.664,5.703,0.004,8.414,0.766c-0.516,1.691-1.949,2.467-2.547,4.076
			C310.311,238.425,308.566,236.601,306.537,235.062z"/>
	</g>
	<path fill="#D2D1CB" d="M385.059,241.687c-0.9-0.447-0.627,0.172-1.525,0.254C383.475,241.413,385.066,240.565,385.059,241.687z"/>
	
		<linearGradient id="SVGID_5_" gradientUnits="userSpaceOnUse" x1="489.8418" y1="500.9443" x2="526.3535" y2="500.9443" gradientTransform="matrix(1 0 0 -1 0 794)">
		<stop  offset="0" style="stop-color:#D40000"/>
		<stop  offset="0.928" style="stop-color:#1B0A0B"/>
	</linearGradient>
	<path fill="url(#SVGID_5_)" d="M489.842,242.708c6.312,6.264,11.734,13.412,15.549,22.178c5.516,8.418,9.895,17.973,13.508,28.297
		c0.555,0.719,0.955,1.598,1.533,2.293c0.875,5.924,4.697,10.877,5.098,17.336c-0.227,0.988,1.111,0.416,0.768,1.531
		c0.029,1.393-1.232,1.486-1.023,3.059c-5.971,6.859-11.367,14.297-19.115,19.375c-2.348,2.691-5.65,5.709-8.924,6.627
		c2.172-20.787,1.377-51.1-1.531-72.654c-0.449-3.332-1.789-5.73-1.271-8.926C492.771,255.632,491.004,249.876,489.842,242.708z"/>
	<path d="M473.525,258.261c-3.703-1.51-7.23-14.844-0.258-15.297c3.648-0.238,10.668,5.873,10.453,10.199
		C483.514,257.253,478.682,258.886,473.525,258.261z M480.4,253.925c-0.438-4.865-4.273-7.566-8.156-8.156
		c-0.674,1.361-0.602,3.668-0.254,5.35c1.645,0.396,1.525,2.553,2.295,3.826C476.189,255.575,479.338,255.505,480.4,253.925z"/>
	<path d="M148.992,248.573c3.801-0.83,6.576,1.361,7.135,4.076c0.562,2.729-2.455,7.848-4.844,8.414
		C143.83,262.823,142.428,250.046,148.992,248.573z M148.482,258.261c3.275,1.324,3.49-2.398,5.098-3.574
		c-0.199-1.596,0.125-2.148-0.514-3.311c-1.104,0.35-1.699,0.205-2.545-0.26C148.592,253.528,147.604,254.788,148.482,258.261z"/>
	<path d="M486.783,274.323c-3.98,7.602-14.137,2.932-14.537-5.357c1.258-3.6,3.777-7.553,8.158-6.629
		c1.842,0.389,5.121,3.602,5.867,6.119C486.873,270.497,485.906,272.54,486.783,274.323z M483.977,273.3
		c0.225-0.805-0.043-3.732-0.51-4.844c-1.816-4.262-9.488-5.225-8.672,1.785c0.242,2.074,1.973,2.852,3.062,4.586
		C481.166,275.308,483.332,275.536,483.977,273.3z"/>
	<path d="M150.01,267.944c-0.082,0.828,0.465,1.18,0.512,2.041c0.293,5.668-3.258,11.385-8.926,10.963
		c-6.984-0.832-6.172-10.705-2.039-13.768C142.678,264.87,146.572,265.958,150.01,267.944z M139.303,276.36
		c1.762,1.221,4.006,1.516,5.863,1.783c-0.174-3.961,0.742-6.109,0.51-8.924C141.549,268.187,139.936,272.411,139.303,276.36z"/>
	<path d="M260.906,279.165c0.006,0.598-0.438,0.75-0.256,1.527c-0.955,0.641-2.576,0.133-3.059-0.512
		c-18.033-3.51-34.387-7.639-53.281-9.178c0.465-1.715,1.959-0.625,3.059-0.512c4.309,0.459,10.086,0.264,14.789,1.021
		C234.994,273.583,249.604,277.196,260.906,279.165z"/>
	<path d="M404.943,272.022c-4.098,0.875-8.594,1.756-11.727,2.301c-0.461-1.732,1.594-0.965,1.785-2.041
		C398.359,272.392,401.699,271.181,404.943,272.022z"/>
	<path d="M489.072,285.534c2.041,3.514,2.125,8.055,1.789,12.492c-1.129,2.189-2.891,3.744-4.078,5.863
		c-3.854,2.041-7.525,0.645-11.223-0.51c-4.785-4.322-3.039-16.064,1.02-19.627C481.275,281.442,486.025,282.894,489.072,285.534z
		 M483.209,302.104c4.459-0.084,6.303-8.236,4.848-12.234c-1.455-0.84-2.287-2.309-3.064-3.822c-2.346-0.58-4.619,0.254-6.117,1.27
		c-0.768,2.838-1.752,5.668-1.783,9.182c0.633,1.641,1.359,2.369,1.783,4.588C480.76,301.269,481.811,302.132,483.209,302.104z"/>
	<path d="M142.363,310.265c-1.191,0.174-1.629-0.412-2.295-0.766c-5.174,0.373-7.562-4.123-9.943-7.395
		c-0.535-3.518,0.146-8.182,2.035-10.705c3.828-2.949,10.555-2.822,13.004,1.529C145.635,298.853,145.32,305.245,142.363,310.265z
		 M141.85,293.187c-1.174-1.531-4.082-1.713-6.371-0.258c-1.475,0.939-3.574,4.227-2.803,7.904c0.166,0.795,3.633,4.799,4.33,5.094
		c1.432,0.615,2.955-0.029,4.336-0.252C140.838,302.11,144.424,296.522,141.85,293.187z"/>
	<path d="M135.225,313.323c1.396-0.141,3.824,0.287,5.098,1.02c2.998,1.719,7.029,12.932,2.805,16.57
		c-1.807,1.553-5.352,1.732-7.65,1.273c-3.131-0.617-6.932-4.916-7.393-8.668C127.564,319.233,131.018,313.743,135.225,313.323z
		 M135.479,316.382c-7.635,2.48-2.627,15.402,4.846,12.748c0.758-3.701,1.822-9.24-1.02-11.982
		C137.639,317.864,137.09,316.435,135.479,316.382z"/>
	<path d="M476.58,331.937c-0.305-0.883-0.771-1.605-2.039-1.531c-0.547-1.1-0.855-4.553-2.039-5.861
		c0.596-2.975,1.631-5.508,2.809-7.904c1.289-1.18,3.701-1.225,4.59-2.805c7.316,1.23,12.627,6.748,9.174,14.275
		c-2.588,2.119-6.107,6.037-9.432,3.826C478.623,332.495,477.908,331.767,476.58,331.937z M480.912,318.679
		c-0.801,0.121-0.572-0.781-1.527-0.514c-3.871,2.664-2.795,12.945,3.572,11.221c5.812-2.629,5.67-10.527-0.256-12.24
		C481.596,317.153,481.746,318.401,480.912,318.679z"/>
	<path d="M134.459,339.327c0.051-0.289,0.258-0.145,0.258,0c11.916-3.383,13.023,15.871,4.08,17.59
		c-3.252-0.906-5.633-2.695-7.652-4.844c0.014-1.879-0.307-3.428-0.764-4.846C131.42,344.276,132.244,341.108,134.459,339.327z
		 M137.006,343.915c-0.471-0.381-1.395-1.074-0.764-1.783c-1.367,0.318-2.869,2.693-1.787,3.824
		c-2.006,3.502,0.699,8.09,4.594,8.156c3.248-2.5,4.102-9.805,0.254-12.492c-0.594,0-1.191,0-1.783,0
		C137.428,342.841,138.152,343.554,137.006,343.915z"/>
	<path d="M468.678,348.251c0.707-3.746,4.127-8.473,8.414-8.672c2.504-0.113,5.918,1.979,7.393,4.082
		c3.328,4.74-0.365,17.518-8.924,13.768C472.311,356.003,469.924,351.667,468.678,348.251z M474.795,343.405
		c-0.979,2.002-2.242,4.559-1.785,7.143c0.34,1.922,3.189,4.441,4.594,4.588c0.861,0.086,3.326-0.844,3.82-1.277
		c2.025-1.775,1.688-5.736,1.527-8.67c-1.641-1.076-2.658-2.777-4.846-3.314C478.172,343.55,476.008,343.001,474.795,343.405z"/>
	<path d="M479.383,362.78c5.932,6.682,1.174,23.463-10.195,16.064c-0.367-1.166-1.057-2.004-2.041-2.553
		c-1.91-5.697-0.125-9.828,2.805-13.512C473.406,361.589,475.756,360.749,479.383,362.78z M477.857,365.333
		c-5.484-2.891-9.785,2.707-8.162,8.92c0.342,0,0.678,0,1.016,0c-0.605,0.584-0.385,0.822-0.254,1.781
		C476.146,379.415,481.543,370.765,477.857,365.333z"/>
	<path d="M144.146,377.823c-5.123,0.49-6.875-2.898-9.688-5.357c-2.566-7.838,5.461-13.479,10.707-7.393
		C147.877,368.216,148.248,375.501,144.146,377.823z M142.873,375.019c1.258-2.227,2.857-7.746-1.023-8.16
		c-1.625,0.768-2.375-0.158-4.328-0.256C136.572,371.13,138.625,374.835,142.873,375.019z"/>
	<path d="M309.088,373.995c0.17,0,0.34,0,0.512,0c1.641,1.115,1.648,3.902,0.764,5.867
		C306.543,379.718,308.43,376.087,309.088,373.995z"/>
	<path fill="#8A8380" d="M231.846,402.042c0.301,1.719,0.576,3.965,0.766,6.885c-0.227,0.814,0.84,0.35,0.766,1.018
		c-0.084,5.35,2.971,7.568,4.846,10.965c1.627,0.662,3.182,1.404,4.844,2.039c-6.785,3.529-7.943,11.369-7.648,19.631
		c0.227,6.418,5.213,13.623,6.373,19.119c4.049,6.572,7.836,13.4,18.102,13.762c-1.441,1.195-3.045,2.227-5.098,2.809
		c-3.211,2.057-5.645,4.891-8.162,7.645c-3.174,11.85,1.734,23.691,6.121,32.889c3.799,7.967,9.062,15.99,13.508,23.455
		c-1.521-0.016-1.943-1.117-3.822-0.766c-4.852-2.184-9.463-4.381-14.02-7.141c-0.334-0.199-1.223-0.031-1.531-0.256
		c-0.357-0.256-0.164-0.852-0.508-1.018c-0.902-0.439-3.383-0.85-4.59-1.527c-0.463-0.262-0.6-1.002-1.02-1.275
		c-2.211-1.439-5.309-2.256-7.906-3.828c-1.18-0.713-2.35-1.51-3.562-2.295c-1.832-1.176-2.906-2.445-5.357-3.057
		c-4.326-4.447-13.623-8.893-17.59-14.529c-2.637-3.746-1.422-7.502,0.256-12.238c2.121-20.498,0.91-40.797-4.844-61.441
		c5.312,4.545,8.643,11.074,13.766,15.809c0.227,0.623,0.594,1.102,0.51,2.039c4.496,1.703,4.576,7.828,8.156,10.449
		c-0.695,1.387,0.586,2.754,1.279,3.574c1.121-1.898-1.613-3.479-0.766-5.098c-1.961-2.971-3.613-6.25-4.848-9.943
		c-0.539-0.574-0.969-1.244-1.787-1.533c-0.824-3.924-4.787-7.244-7.135-10.961c-0.555-0.879-0.703-1.955-1.275-2.801
		c-2.588-3.863-5.988-8.424-9.688-11.473c0-0.344,0-0.682,0-1.021c-3.045-1.721-5.383-4.133-7.137-7.141
		c-1.654-1.064-3.357-2.08-3.826-4.33C204.111,410.327,219.492,405.304,231.846,402.042z M227.51,471.89
		c1.316,2.672,2.227,6.607,4.078,9.434c0.15,1.383,0.395,2.662,1.785,2.809c-0.971-5.391-2.605-8.727-4.59-13.262
		c-0.326-0.016-0.352-0.328-0.764-0.258C228.213,471.401,227.318,471.108,227.51,471.89z"/>
	<path fill="#8A8380" d="M416.67,416.063c-3.609,2.619-7.346,6.379-10.705,8.41c-1.834,3.352-4.02,6.348-6.631,8.92
		c-0.48,2.486-1.758,4.191-3.312,5.609c-1.99,5.199-5.18,9.934-7.391,15.555c-1.125,2.855-1.689,4.496-2.551,8.158
		c-0.625,2.635-2.926,4.766-2.551,7.645c7.643-13.432,13.162-28.984,24.219-39.002c-3.244,11.729-3.861,23.955-4.59,36.709
		c-0.195,3.482,0.15,12.539,1.02,18.104c0.363,2.312-0.215,5.979-1.783,8.41c-0.637,0.992-1.895,1.527-2.805,2.551
		c-2.17,2.439-4.291,5.715-6.627,7.9c-3.152,2.947-7.199,5.186-10.453,7.396c-8.91,6.719-18.049,13.223-28.553,18.354
		c-0.939,0.678-1.623,1.607-3.061,1.783c2.43-11.164,7.9-19.289,9.43-31.354c2.76-5.234,2.406-13.623-1.018-18.613
		c-1.459-0.49-2.557-1.354-3.059-2.803c-3.836-0.498-5.365-3.305-9.434-3.57c3.535-1.113,8.738-2.787,12.24-2.293
		c0.762-0.17,0.385-1.484,1.016-1.783c1.1-0.137,1.43-0.078,2.039-0.26c0.984-1.537,3.227-2.201,4.844-3.822
		c2.027-2.031,4.188-6.607,6.631-9.689c0.527-0.668,1.373-0.922,1.783-1.527c0.379-0.561,0.352-1.674,0.766-2.293
		c0.299-0.449,1.119-0.723,1.275-1.021c0.402-0.781,0.238-2.158,0.768-3.059c0.539-0.92,0.826-0.912,1.527-2.295
		c0.57-1.131,0.381-1.307,0.77-2.801c0.535-2.137,2.662-5.277,2.799-8.67c0.17-4.348-2.416-11.152-8.412-10.967
		c0.199-1.047-1.221-0.471-1.021-1.525c1.641-0.959,3.689-1.201,5.357-2.041c1.057-0.527,1.648-1.562,2.805-1.781
		c1.486-2.859,2.971-8,4.328-10.963C396.01,411.011,405.068,417.128,416.67,416.063z M382,472.401
		c-2.279,6.889-4.525,16.129-6.119,23.707c1.67-0.199,1.629-2.111,1.785-3.822c2.713-3.666,2.242-9.713,4.846-13.002
		c-0.303-1.938,1.334-4.969,1.021-6.883C383.016,472.401,382.51,472.401,382,472.401z"/>
	<path d="M228.02,470.616c0.412-0.07,0.438,0.242,0.764,0.256c1.984,4.533,3.619,7.869,4.59,13.26
		c-1.391-0.145-1.635-1.426-1.785-2.803c-1.852-2.832-2.762-6.768-4.078-9.436C227.318,471.108,228.213,471.401,228.02,470.616z"/>
	<path d="M383.529,472.401c0.312,1.914-1.322,4.945-1.02,6.883c-2.605,3.289-2.133,9.336-4.846,13.002
		c-0.154,1.713-0.115,3.623-1.785,3.822c1.596-7.578,3.84-16.82,6.119-23.707C382.51,472.401,383.016,472.401,383.529,472.401z"/>
	<g>
		
			<linearGradient id="SVGID_6_" gradientUnits="userSpaceOnUse" x1="470.8135" y1="556.2217" x2="470.8135" y2="417.3126" gradientTransform="matrix(1 0 0 -1 0 794)">
			<stop  offset="0" style="stop-color:#EFF811"/>
			<stop  offset="0.8295" style="stop-color:#C68B07"/>
			<stop  offset="1" style="stop-color:#521C03"/>
		</linearGradient>
		<path fill="url(#SVGID_6_)" d="M459.498,222.313c0.346,1.365-0.857,1.182-0.762,2.295c-0.352,0.781,0.527,0.635,0.762,1.273
			c0.318,0.865-0.082,2.131,0.51,3.059c2.082,3.258,9.242,3.115,11.984-0.256c1.592-1.957,0.105-3.611,2.039-5.352
			c3.732,3.658,6.576,8.205,9.174,13c0.48,0.484,0.035,0.639,0,1.275c2.129,2.146,3.092,3.887,3.578,7.648
			c2.143,1.953,1.531,6.766,3.059,8.668c-0.152,6.027,2.807,13.018,3.061,19.633c0.385,10.545,2.654,18.9,1.779,30.59
			c0.492,9.385-0.215,20.137-1.779,31.615c-0.949,6.922-0.957,13.277-2.037,19.375c-1.125,6.301-3.57,12.373-4.08,19.631
			c-1.316,2.699-1.885,6.496-3.064,9.941c-1.209,0.488-2.371,1.027-3.57,1.529c-6.604-5.016-13.502,0.336-17.336,4.076
			c0.582,6.105-6.213,5.91-11.219,7.141c2.91-5.904,5.521-11.303,6.881-19.117c2.85-4.426,5.012-13.078,6.121-19.889
			c0.371-2.289,0.473-4.607,0.764-6.881c0.303-2.367,1.469-4.691,1.785-7.141c0.77-5.969,1.355-12.264,2.041-18.609
			c0.963-8.932,2.002-18.225,2.035-27.023c0.084-18.486-3.588-36.248-8.158-51.75c-1.828-9.568-5.057-16.973-12.49-21.666
			c-1.08,0.383-2.322-0.545-3.826-0.512C448.973,222.259,455.236,222.067,459.498,222.313z M475.307,241.433
			c7.182-7.254-8.58-12.984-9.436-3.57C468.088,239.896,471.045,243.036,475.307,241.433z M483.721,253.163
			c0.215-4.326-6.805-10.438-10.453-10.199c-6.973,0.457-3.449,13.787,0.258,15.297
			C478.682,258.886,483.514,257.253,483.721,253.163z M486.27,268.456c-0.748-2.518-4.023-5.73-5.869-6.119
			c-4.379-0.922-6.898,3.029-8.156,6.629c0.4,8.287,10.559,12.959,14.535,5.357C485.906,272.54,486.873,270.497,486.27,268.456z
			 M476.58,283.753c-4.059,3.562-5.805,15.305-1.02,19.627c3.699,1.154,7.369,2.553,11.223,0.51
			c1.188-2.119,2.949-3.674,4.078-5.863c0.336-4.438,0.254-8.979-1.789-12.492C486.025,282.894,481.275,281.442,476.58,283.753z
			 M479.641,331.937c3.322,2.211,6.844-1.709,9.432-3.826c3.453-7.527-1.857-13.045-9.176-14.275
			c-0.885,1.58-3.301,1.625-4.59,2.805c-1.176,2.396-2.211,4.93-2.807,7.904c1.186,1.307,1.494,4.76,2.039,5.861
			c1.27-0.072,1.732,0.65,2.037,1.531C477.908,331.767,478.623,332.495,479.641,331.937z M475.561,357.429
			c8.561,3.75,12.252-9.027,8.924-13.768c-1.477-2.104-4.889-4.195-7.393-4.082c-4.287,0.199-7.707,4.926-8.414,8.672
			C469.924,351.667,472.311,356.003,475.561,357.429z M469.951,362.78c-2.93,3.686-4.715,7.814-2.805,13.512
			c0.986,0.549,1.674,1.387,2.041,2.553c11.369,7.398,16.127-9.383,10.195-16.064C475.756,360.749,473.406,361.589,469.951,362.78z"
			/>
		
			<linearGradient id="SVGID_7_" gradientUnits="userSpaceOnUse" x1="155.8677" y1="575.2637" x2="155.8677" y2="410.5938" gradientTransform="matrix(1 0 0 -1 0 794)">
			<stop  offset="0" style="stop-color:#EFF811"/>
			<stop  offset="0.8295" style="stop-color:#C68B07"/>
			<stop  offset="1" style="stop-color:#521C03"/>
		</linearGradient>
		<path fill="url(#SVGID_7_)" d="M163.521,222.313c-2.465,6.322,4.141,9.369,9.434,8.666c1.771-1.949,3.918-4.648,3.314-8.158
			c3.412,0.109,6.811,0.186,9.682,1.02c-6.928,3.777-12.801,8.607-16.566,15.553c-2.582,1.051-2.951,3.891-4.082,5.863
			c-0.836,1.457-1.891,2.666-2.801,4.588c-0.223,0.471,0.172,0.939,0,1.273c-1.078,2.072-3.088,4.367-3.312,7.908
			c-0.508,0-0.324,0.691-1.02,0.504c-0.104,1.746-0.391,3.465-1.277,5.357c-3.512,7.504-5.594,18.678-7.391,28.553
			c-1.387,7.605-1.748,17.34-2.041,26.516c-0.861,26.973,3.074,52.725,9.943,75.457c-0.441,0.965-2.465-2.064-3.822-1.018
			c0.561-3.105-3.727-4.416-5.607-6.627c-2.475-0.078-4.471-0.178-6.883,0.254c-1.582-0.965-3.223-1.877-4.59-3.059
			c0-0.426,0-0.852,0-1.277c-1.547-0.582-0.76-2.242-2.295-3.055c-1.641-5.594-3.68-12.113-4.08-18.104
			c1.58,0.291,2.432,1.305,4.08,1.529c0.012-1.334-2.729-1.998-4.08-2.805c-4.549-12.301-3.211-25.143-4.334-40.277
			c-0.064-0.967,0.189-1.77,0.256-2.809c1.078-16.197,2.654-33.812,7.396-46.904c0.258-0.721,1.01-1.32,1.273-2.041
			c0.977-2.676,1.4-5.648,2.549-7.904c0.328-0.631,1.229-1.148,1.531-1.785c0.506-1.062-0.117-2.604,1.273-3.057
			c0-0.68,0-1.357,0-2.039c5.377-11.279,11.848-21.467,19.887-30.082c1.434,0.029,2.512-0.361,2.803-2.037
			C163.014,222.313,163.268,222.313,163.521,222.313z M157.916,244.237c5.762,0.01,7.551-12.098,0.508-10.705
			C153.139,234.573,152.545,244.228,157.916,244.237z M151.287,261.063c2.385-0.568,5.402-5.686,4.84-8.414
			c-0.559-2.715-3.334-4.906-7.133-4.076C142.428,250.046,143.83,262.823,151.287,261.063z M139.557,267.181
			c-4.129,3.062-4.945,12.936,2.039,13.768c5.67,0.422,9.219-5.295,8.926-10.963c-0.051-0.865-0.594-1.213-0.512-2.041
			C146.572,265.958,142.678,264.87,139.557,267.181z M145.166,292.929c-2.449-4.352-9.176-4.479-13.004-1.529
			c-1.891,2.523-2.57,7.188-2.035,10.705c2.379,3.271,4.768,7.768,9.943,7.395c0.666,0.354,1.104,0.939,2.295,0.766
			C145.32,305.245,145.635,298.853,145.166,292.929z M128.086,323.521c0.461,3.752,4.264,8.051,7.393,8.67
			c2.301,0.459,5.844,0.277,7.652-1.275c4.223-3.637,0.191-14.852-2.807-16.57c-1.275-0.732-3.701-1.158-5.098-1.02
			C131.018,313.743,127.564,319.233,128.086,323.521z M130.381,347.229c0.457,1.416,0.777,2.969,0.764,4.846
			c2.02,2.146,4.4,3.936,7.652,4.846c8.943-1.721,7.836-20.975-4.08-17.59c0-0.145-0.207-0.291-0.258,0
			C132.244,341.108,131.42,344.276,130.381,347.229z M145.166,365.075c-5.25-6.084-13.277-0.445-10.707,7.393
			c2.812,2.457,4.564,5.848,9.688,5.357C148.248,375.501,147.877,368.216,145.166,365.075z"/>
		
			<linearGradient id="SVGID_8_" gradientUnits="userSpaceOnUse" x1="149.6973" y1="481.707" x2="189.5234" y2="481.707" gradientTransform="matrix(1 0 0 -1 0 794)">
			<stop  offset="0" style="stop-color:#EFF811"/>
			<stop  offset="0.8295" style="stop-color:#C68B07"/>
			<stop  offset="1" style="stop-color:#521C03"/>
		</linearGradient>
		<path fill="url(#SVGID_8_)" d="M189.523,225.882c-4.08,1.963-6.541,3.867-9.428,7.65c-7.381,9.654-14.947,23.551-18.609,36.455
			c-1.113,3.902-0.977,8.381-2.553,11.98c-0.262,0.723,0.422,1.748,0,1.789c-3.164,15.174-5.533,37.113-4.33,53.277
			c0.053,0.744,0.273,1.338,0.254,2.039c-0.012,0.461-0.539,1.143-0.51,1.529c0.047,0.592,0.664,1.4,0.771,2.041
			c0.148,0.93-0.354,1.926,0.508,2.547c0.436,11.758,2.824,26.682,5.352,39.77c0.518,2.686,1.572,5.229,2.041,7.648
			c0.566,2.934,0.809,4.723,2.293,6.123c-2.441,0.145-1.75-2.838-4.334-2.553c-1.445-4.273-3.148-8.506-4.332-13.004
			c-2.609-9.893-5.115-22.879-5.863-33.904c-0.244-3.582-0.906-7.23-1.02-10.705c-0.23-7.055,0.186-14.172,0.508-21.414
			c0.354-7.875-0.182-15.062,1.023-22.686c2.221-5.67,2.572-13.359,4.332-19.891c0.543-2.004,2.141-3.84,2.803-5.859
			c0.664-2.025,1.141-3.443,1.785-5.1c0.881-2.283,1.057-5.133,2.039-7.393c1.408-3.252,3.947-6.195,4.844-10.453
			c1.078-1.109,2.529-2.33,3.568-3.828c0.439-0.631,0.543-1.447,1.021-2.037c0.334-0.404,1.107-0.342,1.525-0.766
			c0.883-0.885,1.162-2.564,2.041-3.564c0.867-0.984,2.258-2.012,3.312-3.062c2.104-2.092,2.67-2.666,5.1-4.082
			C185.502,227.358,185.943,225.591,189.523,225.882z"/>
		
			<linearGradient id="SVGID_9_" gradientUnits="userSpaceOnUse" x1="440.1152" y1="481.1279" x2="468.4541" y2="481.1279" gradientTransform="matrix(1 0 0 -1 0 794)">
			<stop  offset="0" style="stop-color:#EFF811"/>
			<stop  offset="0.8295" style="stop-color:#C68B07"/>
			<stop  offset="1" style="stop-color:#521C03"/>
		</linearGradient>
		<path fill="url(#SVGID_9_)" d="M445.221,397.962c-0.223-1.465,1.471-2.197,2.037-3.311c0.842-1.645,0.744-3.855,1.531-5.869
			c0.859-2.193,2.141-3.951,2.805-6.373c1.744-6.377,3.494-12.082,5.1-18.609c1.48-6.039,3.842-13.018,3.822-20.648
			c-0.008-3.547,1.195-7.344,1.527-10.965c0.82-8.881,1.891-19.555,2.039-29.824c0.049-3.521,0.049-7.869-0.254-10.965
			c-1.867-18.838-3.408-32.779-8.162-48.436c-1.701-4.248-3.957-7.936-5.352-12.494c-4.436-0.748-6.629,1.648-10.199,1.02
			c2.863-6.43,11.221-3.48,14.531,1.021c0.32,0.439,0.387,1.211,0.764,1.783c2.389,3.617,3.967,7.449,5.357,13
			c0.314,1.275,0.959,2.424,0.764,4.592c6.195,20.102,7.963,42.076,6.369,62.713c-0.818,10.746-2.51,20.986-4.072,31.355
			c-1.041,6.881-2.256,16.559-4.336,24.219c-2.51,3.605-1.76,8.922-4.844,11.982c0.078,2.145-1.34,4.582-2.037,6.119
			C450.568,392.772,449.719,398.284,445.221,397.962z"/>
		
			<linearGradient id="SVGID_10_" gradientUnits="userSpaceOnUse" x1="193.1826" y1="268.5166" x2="413.3535" y2="268.5166" gradientTransform="matrix(1 0 0 -1 0 794)">
			<stop  offset="0" style="stop-color:#EFF811"/>
			<stop  offset="0.8295" style="stop-color:#C68B07"/>
			<stop  offset="1" style="stop-color:#521C03"/>
		</linearGradient>
		<path fill="url(#SVGID_10_)" d="M409.787,492.286c2.471,0.072,2.551,2.547,3.566,4.076c-0.959,0.684-0.379,1.852-0.766,2.809
			c-0.285,0.719-1.209,1.227-1.525,2.041c-0.262,0.654,0.059,1.602-0.26,2.295c-1.533,3.35-5.686,5.654-8.916,8.406
			c-1.998,1.701-2.914,2.668-5.102,4.082c-2.34,1.512-4.596,3.43-7.137,5.098c-5.725,3.754-10.91,7.92-17.082,10.965
			c-4.363,3.791-11.021,5.289-15.549,8.918c-5.254,1.613-10.104,4.799-15.039,6.883c-2.652,1.115-5.59,1.172-7.654,2.807
			c-1.697-0.361-2.971,0.982-4.588,1.529c-6.098,2.074-13.387,3.035-19.121,5.354c-7.061-0.215-13.303,2.461-19.883,0.256
			c-3.484,0.805-6.17-0.121-9.686-1.02c-0.592-0.152-1.445-0.701-1.783-0.762c-0.541-0.104-1.047,0.371-1.531,0.25
			c-3.32-0.828-6.92-2.219-10.455-3.311c-2.406-0.746-4.803-1.725-7.135-2.805c-3.6-1.666-6.908-2.689-9.688-4.844
			c-9.863-3.262-17.375-8.916-27.027-12.748c-8.207-5.723-17.828-10.047-24.217-17.594c-1.172-0.018-1.391-0.992-2.295-1.271
			c-0.152-0.814,0.477-0.789,0-1.275c-3.197-1.434-4.162-5.777-3.568-8.412c2.154-2.516,4.846-4.498,8.918-5.098
			c-0.779,3.703-4.936,2.713-5.098,6.627c-0.066,1.627,1.342,3.594,2.551,4.588c3.92,3.23,10.088,7.084,12.75,9.939
			c1.9,0.648,3.545,1.559,4.588,3.066c1.18-0.158,1.467,0.57,2.551,0.508c3.518,2.275,6.945,5.215,10.959,7.393
			c4.363,2.363,9.551,5.135,14.279,7.648c3.879,2.064,8.045,3.221,11.98,5.098c1.793,0.857,4.605,2.684,6.885,3.57
			c7.385,2.883,15.762,3.889,23.965,5.102c0.756,0.111,1.346,0.15,2.037,0.764c9.211,0.045,19.004,0.447,25.492-3.061
			c7.238,0.162,12.373-3.926,19.119-5.104c0.525-0.062,0.51-0.678,0.768-1.01c3.279-0.215,6.008-2.832,8.668-4.082
			c0.902-0.428,1.953-0.338,2.805-0.768c1.301-0.664,2.537-1.686,4.08-2.553c3.092-1.729,6.459-3.623,9.939-5.352
			c6.221-3.086,10.775-5.715,16.316-8.666c5.17-3.758,11.459-6.393,15.805-10.969c1.016,0.252,0.77-0.762,1.785-0.508
			c4.059-3.842,8.447-7.357,13.002-10.707c1.229-2.168,2.76-4.033,2.801-7.391C409.986,492.94,409.771,492.728,409.787,492.286z"/>
		
			<radialGradient id="SVGID_11_" cx="301.8896" cy="241.0908" r="86.5072" gradientTransform="matrix(1 0 0 -1 0 794)" gradientUnits="userSpaceOnUse">
			<stop  offset="0" style="stop-color:#EFF811"/>
			<stop  offset="0.8295" style="stop-color:#C68B07"/>
			<stop  offset="1" style="stop-color:#521C03"/>
		</radialGradient>
		<path fill="url(#SVGID_11_)" d="M413.611,504.522c0.699,2.996,0.891,6.41,0.258,9.689c-1.615,0.107-4.496-0.676-6.375-0.26
			c0.07,1.531-1.9,1.961-2.551,3.574c-1.43,3.541,0.33,11.961,2.293,14.531c0.635,0.824,1.715,1.082,2.295,1.781
			c1.736-0.137,2.74-1.004,3.822-1.781c1.277,2.279-1.197,4.574-3.061,5.352c-0.279,3.373-2.943,4.363-4.076,6.887
			c-7.512,7.191-15.367,14.031-23.965,20.139c-5.59,4.701-13.07,8.658-19.117,12.488c-1.543,0.982-3.008,2.4-4.846,2.551
			c-9.883,7.279-22.398,11.934-34.412,17.084c-3.863,0.402-7.092,1.773-11.473,2.805c-1.957,0.461-4.189,1.566-5.867,1.781
			c-3.998,0.508-8.895-0.332-14.02-1.273c-1.441-0.262-2.383-1.301-3.824-1.783c-2.652-0.896-5.531-1.412-8.414-2.553
			c-1.145-0.449-2.084-1.145-3.309-1.529c-3.641-1.141-6.578-3.002-9.947-4.59c-0.936-0.439-2.102-0.338-3.053-0.764
			c-4.596-2.047-8.49-5.453-13.008-6.375c-12.916-7.9-27.297-14.338-39.258-23.199c-7.09-3.191-12.832-7.734-18.102-12.742
			c-1.377,0.184-1.115-1.266-2.803-0.77c-0.168-1.666-0.072-4.529-1.018-6.117c7.334-0.672,6.715-10.785,5.861-16.312
			c-1.707-2.119-3.811-3.832-6.119-5.355c0.262-2.734,1.699-5.84,1.023-7.395c0.84-0.625,2.617,1.875,3.057,3.314
			c2.598,1.564,4.244,3.951,6.375,6.117c1.707,1.732,4.699,3.1,7.137,4.846c0.596,0.426,0.955,1.383,1.527,1.783
			c0.691,0.482,1.602,0.494,2.295,1.021c2.918,2.227,6.471,4.193,10.199,6.115c2.24,1.156,5.002,2.092,6.883,3.314
			c0.408,0.266,0.582,1.066,1.021,1.275c0.498,0.232,1.268-0.016,1.783,0.256c2.102,1.098,3.9,2.992,6.117,3.824
			c2.164,0.805,3.633,1.197,5.863,2.293c0.678,0.332,1.107,1.203,1.785,1.527c1.379,0.672,3.039,0.992,4.59,1.785
			c1.441,0.742,2.936,1.105,4.336,1.785c3.074,1.5,6.021,3.551,9.176,4.59c3.686,1.223,7.514,1.867,11.213,3.064
			c2.051,0.658,4.01,1.791,6.121,2.293c1.482,0.35,3.256,0.162,4.844,0.508c1.152,0.246,2.123,1.086,4.08,0.764
			c1.59,0.922,3.871,0.902,6.881,0.512c6.955-0.902,14.795-1.398,21.412-3.062c1.598-0.395,3.127-1.449,4.846-2.039
			c1.789-0.607,3.789-0.754,5.611-1.271c9.102-2.588,18.801-6.844,27.533-10.705c8.836-3.914,18.477-9.693,26.004-15.043
			c0.721-0.045,1.061-0.471,1.779-0.512c5.312-4.297,11.877-7.34,16.828-11.982c0.34,0,0.68,0,1.02,0
			C405.205,512.774,410.104,509.343,413.611,504.522z M394.748,543.526c2.549-0.256,3.838-1.768,5.863-2.551
			c1.391-2.27,3.129-5.104,1.785-8.156c-1.801-4.078-10.129-6.383-13.258-1.789c-1.588,2.34-1.305,5.559-1.275,9.432
			c1.463,1.852,3.98,2.654,5.861,4.084C394.109,544.249,394.025,543.487,394.748,543.526z M212.217,537.923
			c-0.355-1.295-3.098-5.666-4.848-6.373c-3.566-1.465-6.758,0.328-7.648,2.289c-1.754,3.877,0.35,6.441,1.277,9.432
			c1.998,1.912,5.785,2.674,8.664,2.295C211.562,543.823,213.111,541.212,212.217,537.923z M364.662,545.821
			c-0.508,2.119-1.217,4.049-2.035,5.865c1.072,2.33-0.352,3.496,0.766,5.863c1.141,2.432,5.07,4.684,7.648,4.588
			c6.598-0.236,14.486-11.658,10.199-17.586c-1.805-2.49-5.535-4.721-10.453-3.574C368.01,541.856,366.963,544.468,364.662,545.821z
			 M231.588,550.925c-0.539-2.281-4.205-7.609-5.863-8.414c-5.246-2.561-10.521,0.684-11.473,5.863
			c0.902,6.461,7.283,13.242,14.785,9.941C230.848,556.323,232.285,553.876,231.588,550.925z M237.453,565.456
			c1.908,5.059,8.975,9.689,14.531,5.863c3.061-4.02,3.4-10.477,1.275-15.557c-1.26-0.768-1.971-2.404-3.059-3.057
			c-4.797-2.875-9.531-0.434-12.492,3.316C237.701,558.548,236.752,562.071,237.453,565.456z M337.129,557.804
			c-1.076,2.355-3.779,3.486-4.328,6.629c-0.682,3.883,0.469,7.188,1.525,10.451c1.223,1.072,2.615,1.973,3.824,3.059
			c1.947,0.359,4.223-0.09,5.354,0.51c7.143-2.422,13.217-10.541,8.672-19.375C349.023,555.206,341.984,555.647,337.129,557.804z
			 M293.791,587.374c1.773,1.799,4.568,2.57,5.863,4.846c6.121,0.953,10.918,0.744,15.045-2.295
			c2.334-4.738,4.344-8.211,5.096-13.764c-0.258-1.287-1.168-2.049-0.766-3.316c-1.176-1.623-2.41-3.195-3.309-5.096
			c-2.516-1.941-6.918-1.664-10.199-3.314c-0.059,0.195-0.006,0.5-0.256,0.508c-3.537,0.096-4.672-0.145-7.141,0.771
			c-2.877,1.059-3.262,3.734-4.844,6.113c-0.334,0.508-0.842,0.387-1.018,0.766c-1.463,3.139-0.379,6.217-0.762,9.176
			C292.842,582.964,293.627,585.821,293.791,587.374z M275.691,564.942c-3.98-1.123-8.779,0.762-11.719,3.311
			c-1.705,4.254-0.133,9.117,1.523,13.26c3.314,4.857,13.424,4.283,15.553-1.275C282.1,575.112,281.471,566.571,275.691,564.942z"/>
	</g>
	<path d="M393.725,544.552c-1.881-1.432-4.398-2.234-5.861-4.084c-0.031-3.877-0.312-7.096,1.275-9.432
		c3.133-4.596,11.457-2.291,13.258,1.787c1.344,3.055-0.395,5.883-1.783,8.156c-2.027,0.785-3.316,2.295-5.865,2.551
		C394.025,543.487,394.109,544.249,393.725,544.552z M394.232,532.565c-1.156,0.379-1.891,0.365-2.801,0.512
		c-0.086,2.893-0.773,6.133,1.021,7.652c5.365,1.01,10.092-5.156,7.137-8.164c-1.23-1.25-3.457-1.066-5.611-1.783
		C393.549,531.636,394.143,531.651,394.232,532.565z"/>
	<path d="M209.662,545.567c-2.877,0.379-6.666-0.385-8.664-2.295c-0.928-2.992-3.031-5.557-1.277-9.43
		c0.891-1.961,4.082-3.754,7.648-2.293c1.75,0.711,4.494,5.078,4.848,6.375C213.111,541.212,211.562,543.823,209.662,545.567z
		 M202.018,536.134c-0.602,2.686,0.979,7.344,6.117,6.885C213.561,539.61,203.646,528.819,202.018,536.134z"/>
	<path d="M370.783,540.978c4.92-1.146,8.65,1.084,10.455,3.574c4.287,5.928-3.602,17.35-10.201,17.586
		c-2.574,0.096-6.506-2.156-7.646-4.588c-1.113-2.367,0.307-3.531-0.766-5.863c0.818-1.816,1.527-3.746,2.035-5.865
		C366.963,544.468,368.01,541.856,370.783,540.978z M375.371,557.298c1.908-1.65,2.752-4.436,4.334-6.123
		c1.879-5.723-4.713-10.402-8.922-7.902c-1.416,0.842-1.82,3.023-2.805,4.588c-0.047,0.744,0.895,1.803,0.256,2.297
		c-0.732,0.658-1.074-0.623-2.037-0.508C363.639,557.431,370.51,561.493,375.371,557.298z"/>
	<path d="M229.041,558.312c-7.504,3.303-13.885-3.479-14.789-9.939c0.953-5.178,6.229-8.424,11.477-5.863
		c1.66,0.803,5.324,6.131,5.861,8.41C232.285,553.876,230.848,556.323,229.041,558.312z M227.51,556.022
		c5.262-3.066-1.73-11.646-6.375-11.477c-0.197,0.012-0.238,0.254-0.254,0.258C212.889,545.952,221.061,559.772,227.51,556.022z"/>
	<path d="M297.107,542.765c0.285,1.031-0.781,1.26-1.277,0.766C295.945,542.636,296.369,542.448,297.107,542.765z"/>
	<path d="M237.707,556.022c2.963-3.75,7.693-6.195,12.488-3.316c1.092,0.652,1.803,2.289,3.061,3.057
		c2.129,5.078,1.785,11.535-1.273,15.557c-5.557,3.826-12.627-0.801-14.531-5.863C236.752,562.071,237.701,558.548,237.707,556.022z
		 M250.455,566.979c4.406-3.803-1.523-16.66-7.65-10.449c0.123,0.971-0.104,1.59-0.766,1.781c-0.799,0.133-0.674-0.881-1.275-0.254
		c-1.596,6.037,1.387,12.902,8.414,11.984C249.529,568.94,250.773,568.741,250.455,566.979z"/>
	<path d="M352.174,559.077c4.545,8.834-1.527,16.953-8.672,19.375c-1.131-0.6-3.404-0.156-5.355-0.51
		c-1.207-1.086-2.6-1.986-3.822-3.059c-1.057-3.264-2.209-6.568-1.529-10.451c0.555-3.145,3.258-4.273,4.332-6.629
		C341.984,555.647,349.023,555.206,352.174,559.077z M340.957,559.077c-3.945,1.568-4.889,7.078-4.082,11.984
		c0.182,1.117-0.215,2.221,0.514,3.061c2.445,2.826,9.176,0.768,11.723-2.295c1.545-1.859,1.678-4.514,2.295-6.625
		c-0.812-1.568-1.248-3.516-1.787-5.359C347.408,558.194,343.451,558.093,340.957,559.077z"/>
	<path d="M291.502,581.769c0.381-2.965-0.701-6.039,0.762-9.18c0.176-0.375,0.684-0.256,1.018-0.764
		c1.582-2.381,1.965-5.057,4.844-6.115c2.469-0.912,3.604-0.676,7.141-0.77c0.25-0.008,0.195-0.312,0.256-0.508
		c3.281,1.65,7.684,1.369,10.195,3.314c0.902,1.896,2.137,3.471,3.312,5.096c-0.402,1.268,0.508,2.031,0.766,3.316
		c-0.752,5.553-2.762,9.023-5.096,13.764c-4.125,3.039-8.92,3.248-15.045,2.295c-1.295-2.273-4.09-3.047-5.863-4.844
		C293.627,585.821,292.842,582.964,291.502,581.769z M296.338,570.046c-1.396,3.326-3.244,8.699-0.508,11.979
		c-1.213,3.414,3.289,5.32,5.102,7.391c7.121,2.59,14.336-1.836,14.529-8.412c2.008-1.73,0.957-4.557,1.275-6.881
		c-1.062-1.23-1.719-2.865-2.549-4.336c-4.004-1.533-7.811-2.572-12.748-2.295C299.365,567.964,297.502,568.653,296.338,570.046z"/>
	<path d="M281.047,580.237c-2.129,5.559-12.238,6.133-15.553,1.275c-1.658-4.143-3.229-9.006-1.523-13.26
		c2.941-2.555,7.74-4.434,11.719-3.311C281.471,566.571,282.1,575.112,281.047,580.237z M265.496,570.55
		c-0.189,3.043-0.088,5.877,1.02,7.902c2.17,3.977,7.637,3.086,11.471,1.021C281.631,569.981,272.361,563.36,265.496,570.55z"/>
	<g>
		
			<radialGradient id="SVGID_12_" cx="169.5117" cy="569.2686" r="3.4913" gradientTransform="matrix(1 0 0 -1 0 794)" gradientUnits="userSpaceOnUse">
			<stop  offset="0" style="stop-color:#FFFFFF"/>
			<stop  offset="1" style="stop-color:#151011"/>
		</radialGradient>
		<path fill="url(#SVGID_12_)" d="M173.209,222.313c-0.25,2.041-0.912,3.67-1.275,5.607c-3.217,0.414-4.824-0.783-6.119-2.295
			C166.494,222.108,170.273,220.265,173.209,222.313z"/>
		
			<radialGradient id="SVGID_13_" cx="466.4648" cy="569.2998" r="3.7943" gradientTransform="matrix(1 0 0 -1 0 794)" gradientUnits="userSpaceOnUse">
			<stop  offset="0" style="stop-color:#FFFFFF"/>
			<stop  offset="1" style="stop-color:#151011"/>
		</radialGradient>
		<path fill="url(#SVGID_13_)" d="M470.713,225.624c-1.184,3.492-6.26,2.445-8.41,1.021c-0.455-2.092,1.02-3.135,1.02-4.588
			c1.105-1.254,3.469-0.371,5.355,0.256C469.016,223.452,469.66,224.597,470.713,225.624z"/>
		
			<radialGradient id="SVGID_14_" cx="471.3535" cy="556.8926" r="2.9525" gradientTransform="matrix(1 0 0 -1 0 794)" gradientUnits="userSpaceOnUse">
			<stop  offset="0" style="stop-color:#FFFFFF"/>
			<stop  offset="1" style="stop-color:#151011"/>
		</radialGradient>
		<path fill="url(#SVGID_14_)" d="M474.795,238.118c-0.664,0.779-1.305,1.584-3.059,1.275c-0.83-0.699-0.406-2.656-1.533-3.061
			c-1.168,0.025-0.973,1.404-2.299,1.275C468.131,233.366,475.041,234.114,474.795,238.118z"/>
		
			<radialGradient id="SVGID_15_" cx="158.8389" cy="554.9082" r="2.5364" gradientTransform="matrix(1 0 0 -1 0 794)" gradientUnits="userSpaceOnUse">
			<stop  offset="0" style="stop-color:#FFFFFF"/>
			<stop  offset="1" style="stop-color:#151011"/>
		</radialGradient>
		<path fill="url(#SVGID_15_)" d="M160.971,236.591c0.348,2.498-1.186,4.33-3.055,5.35
			C154.611,240.13,158.594,234.851,160.971,236.591z"/>
		
			<radialGradient id="SVGID_16_" cx="476.0684" cy="543.458" r="4.5599" gradientTransform="matrix(1 0 0 -1 0 794)" gradientUnits="userSpaceOnUse">
			<stop  offset="0" style="stop-color:#FFFFFF"/>
			<stop  offset="1" style="stop-color:#151011"/>
		</radialGradient>
		<path fill="url(#SVGID_16_)" d="M474.287,254.944c-0.77-1.273-0.648-3.43-2.295-3.826c-0.35-1.682-0.42-3.988,0.254-5.35
			c3.887,0.588,7.721,3.289,8.158,8.156C479.338,255.505,476.189,255.575,474.287,254.944z"/>
		
			<radialGradient id="SVGID_17_" cx="150.8691" cy="539.1689" r="3.2507" gradientTransform="matrix(1 0 0 -1 0 794)" gradientUnits="userSpaceOnUse">
			<stop  offset="0" style="stop-color:#FFFFFF"/>
			<stop  offset="1" style="stop-color:#151011"/>
		</radialGradient>
		<path fill="url(#SVGID_17_)" d="M150.521,251.118c0.846,0.465,1.441,0.607,2.545,0.26c0.639,1.162,0.314,1.717,0.514,3.312
			c-1.607,1.176-1.822,4.898-5.098,3.572C147.604,254.788,148.592,253.528,150.521,251.118z"/>
		
			<radialGradient id="SVGID_18_" cx="479.3965" cy="523.8691" r="4.8411" gradientTransform="matrix(1 0 0 -1 0 794)" gradientUnits="userSpaceOnUse">
			<stop  offset="0" style="stop-color:#FFFFFF"/>
			<stop  offset="1" style="stop-color:#151011"/>
		</radialGradient>
		<path fill="url(#SVGID_18_)" d="M477.857,274.827c-1.09-1.734-2.82-2.512-3.062-4.586c-0.816-7.01,6.855-6.047,8.672-1.785
			c0.469,1.109,0.734,4.037,0.51,4.844C483.332,275.536,481.166,275.308,477.857,274.827z"/>
		
			<radialGradient id="SVGID_19_" cx="142.5083" cy="520.3975" r="3.9304" gradientTransform="matrix(1 0 0 -1 0 794)" gradientUnits="userSpaceOnUse">
			<stop  offset="0" style="stop-color:#FFFFFF"/>
			<stop  offset="1" style="stop-color:#151011"/>
		</radialGradient>
		<path fill="url(#SVGID_19_)" d="M145.676,269.22c0.232,2.814-0.684,4.963-0.51,8.924c-1.857-0.266-4.102-0.562-5.863-1.783
			C139.936,272.411,141.549,268.187,145.676,269.22z"/>
		
			<radialGradient id="SVGID_20_" cx="482.8184" cy="500.0195" r="7.0283" gradientTransform="matrix(1 0 0 -1 0 794)" gradientUnits="userSpaceOnUse">
			<stop  offset="0" style="stop-color:#FFFFFF"/>
			<stop  offset="1" style="stop-color:#151011"/>
		</radialGradient>
		<path fill="url(#SVGID_20_)" d="M478.875,301.087c-0.424-2.219-1.15-2.947-1.783-4.588c0.031-3.514,1.02-6.344,1.783-9.182
			c1.502-1.016,3.773-1.85,6.117-1.27c0.777,1.514,1.609,2.982,3.064,3.822c1.453,3.998-0.389,12.148-4.848,12.234
			C481.811,302.132,480.76,301.269,478.875,301.087z"/>
		
			<radialGradient id="SVGID_21_" cx="137.6499" cy="494.9395" r="6.2136" gradientTransform="matrix(1 0 0 -1 0 794)" gradientUnits="userSpaceOnUse">
			<stop  offset="0" style="stop-color:#FFFFFF"/>
			<stop  offset="1" style="stop-color:#151011"/>
		</radialGradient>
		<path fill="url(#SVGID_21_)" d="M141.342,305.677c-1.383,0.225-2.904,0.869-4.336,0.254c-0.697-0.297-4.164-4.301-4.33-5.096
			c-0.771-3.678,1.328-6.965,2.803-7.904c2.289-1.455,5.197-1.275,6.371,0.258C144.424,296.522,140.838,302.11,141.342,305.677z"/>
		
			<radialGradient id="SVGID_22_" cx="136.416" cy="471.0645" r="5.7215" gradientTransform="matrix(1 0 0 -1 0 794)" gradientUnits="userSpaceOnUse">
			<stop  offset="0" style="stop-color:#FFFFFF"/>
			<stop  offset="1" style="stop-color:#151011"/>
		</radialGradient>
		<path fill="url(#SVGID_22_)" d="M139.303,317.147c2.84,2.742,1.777,8.281,1.02,11.982c-7.471,2.656-12.479-10.264-4.846-12.748
			C137.09,316.435,137.639,317.864,139.303,317.147z"/>
		
			<radialGradient id="SVGID_23_" cx="482.1797" cy="470.6357" r="5.6634" gradientTransform="matrix(1 0 0 -1 0 794)" gradientUnits="userSpaceOnUse">
			<stop  offset="0" style="stop-color:#FFFFFF"/>
			<stop  offset="1" style="stop-color:#151011"/>
		</radialGradient>
		<path fill="url(#SVGID_23_)" d="M482.697,317.147c5.926,1.713,6.07,9.613,0.258,12.24c-6.367,1.723-7.445-8.555-3.572-11.221
			c0.955-0.268,0.727,0.635,1.527,0.514C481.746,318.401,481.596,317.153,482.697,317.147z"/>
		
			<radialGradient id="SVGID_24_" cx="137.8145" cy="446.1338" r="5.2593" gradientTransform="matrix(1 0 0 -1 0 794)" gradientUnits="userSpaceOnUse">
			<stop  offset="0" style="stop-color:#FFFFFF"/>
			<stop  offset="1" style="stop-color:#151011"/>
		</radialGradient>
		<path fill="url(#SVGID_24_)" d="M137.52,341.62c0.594,0,1.189,0,1.783,0c3.848,2.688,2.994,9.992-0.254,12.492
			c-3.895-0.064-6.6-4.652-4.594-8.156c-1.084-1.131,0.422-3.506,1.787-3.824c-0.631,0.709,0.291,1.402,0.764,1.783
			C138.152,343.554,137.428,342.841,137.52,341.62z"/>
		
			<radialGradient id="SVGID_25_" cx="477.998" cy="445.4922" r="5.9082" gradientTransform="matrix(1 0 0 -1 0 794)" gradientUnits="userSpaceOnUse">
			<stop  offset="0" style="stop-color:#FFFFFF"/>
			<stop  offset="1" style="stop-color:#151011"/>
		</radialGradient>
		<path fill="url(#SVGID_25_)" d="M478.111,341.874c2.182,0.537,3.199,2.24,4.844,3.314c0.156,2.934,0.494,6.895-1.529,8.67
			c-0.494,0.434-2.961,1.363-3.82,1.277c-1.404-0.146-4.254-2.666-4.592-4.588c-0.457-2.584,0.805-5.143,1.783-7.143
			C476.008,343.001,478.172,343.55,478.111,341.874z"/>
		
			<radialGradient id="SVGID_26_" cx="474.209" cy="423.3271" r="5.527" gradientTransform="matrix(1 0 0 -1 0 794)" gradientUnits="userSpaceOnUse">
			<stop  offset="0" style="stop-color:#FFFFFF"/>
			<stop  offset="1" style="stop-color:#151011"/>
		</radialGradient>
		<path fill="url(#SVGID_26_)" d="M470.459,376.034c-0.133-0.959-0.354-1.197,0.254-1.781c-0.336,0-0.676,0-1.016,0
			c-1.623-6.213,2.676-11.812,8.162-8.92C481.543,370.765,476.146,379.415,470.459,376.034z"/>
		
			<radialGradient id="SVGID_27_" cx="140.792" cy="423.1875" r="3.8704" gradientTransform="matrix(1 0 0 -1 0 794)" gradientUnits="userSpaceOnUse">
			<stop  offset="0" style="stop-color:#FFFFFF"/>
			<stop  offset="1" style="stop-color:#151011"/>
		</radialGradient>
		<path fill="url(#SVGID_27_)" d="M137.52,366.604c1.953,0.096,2.703,1.021,4.328,0.256c3.881,0.414,2.281,5.936,1.023,8.16
			C138.625,374.835,136.572,371.13,137.52,366.604z"/>
		
			<radialGradient id="SVGID_28_" cx="471.1016" cy="402.8564" r="5.2405" gradientTransform="matrix(1 0 0 -1 0 794)" gradientUnits="userSpaceOnUse">
			<stop  offset="0" style="stop-color:#FFFFFF"/>
			<stop  offset="1" style="stop-color:#151011"/>
		</radialGradient>
		<path fill="url(#SVGID_28_)" d="M476.326,386.999c0.762,0.945-0.309,1.926,0.77,3.062c-0.547,1.791-3.281,4.883-6.121,5.352
			c-2.301,0.381-5.799-0.469-5.865-2.551C465.01,389.806,472.656,385.813,476.326,386.999z"/>
		
			<radialGradient id="SVGID_29_" cx="145.6133" cy="401.5947" r="3.936" gradientTransform="matrix(1 0 0 -1 0 794)" gradientUnits="userSpaceOnUse">
			<stop  offset="0" style="stop-color:#FFFFFF"/>
			<stop  offset="1" style="stop-color:#151011"/>
		</radialGradient>
		<path fill="url(#SVGID_29_)" d="M150.01,392.862c-1.221,5.525-9.934,2.465-8.668-2.295
			C142.377,386.673,148.666,390.991,150.01,392.862z"/>
		
			<radialGradient id="SVGID_30_" cx="411.1885" cy="270.5049" r="4.8378" gradientTransform="matrix(1 0 0 -1 0 794)" gradientUnits="userSpaceOnUse">
			<stop  offset="0" style="stop-color:#FFFFFF"/>
			<stop  offset="1" style="stop-color:#151011"/>
		</radialGradient>
		<path fill="url(#SVGID_30_)" d="M414.885,521.095c-0.287,2.885-1.023,6.084-3.312,8.158c-2.939-1.645-3.773-5.893-4.08-9.43
			C409.361,515.452,412.727,518.983,414.885,521.095z"/>
		
			<radialGradient id="SVGID_31_" cx="187.7085" cy="265.6665" r="6.9474" gradientTransform="matrix(1 0 0 -1 0 794)" gradientUnits="userSpaceOnUse">
			<stop  offset="0" style="stop-color:#FFFFFF"/>
			<stop  offset="1" style="stop-color:#151011"/>
		</radialGradient>
		<path fill="url(#SVGID_31_)" d="M187.229,520.073c1.387,0.398,1.809,1.764,3.318,2.039c0.234,1.398,1.51,2.244,2.037,3.826
			c1.109,3.326-0.131,6.994-0.766,9.688c-3.979,3.232-7.887-2.402-9.43-5.607c0.008-1.473,0.75-1.785,0-2.803
			C183.256,524.091,184.975,521.812,187.229,520.073z"/>
		
			<radialGradient id="SVGID_32_" cx="395.8652" cy="258.189" r="4.8358" gradientTransform="matrix(1 0 0 -1 0 794)" gradientUnits="userSpaceOnUse">
			<stop  offset="0" style="stop-color:#FFFFFF"/>
			<stop  offset="1" style="stop-color:#151011"/>
		</radialGradient>
		<path fill="url(#SVGID_32_)" d="M393.979,530.782c2.154,0.717,4.381,0.533,5.611,1.783c2.955,3.004-1.775,9.174-7.137,8.164
			c-1.795-1.518-1.107-4.758-1.021-7.652c0.91-0.146,1.645-0.133,2.801-0.512C394.143,531.651,393.549,531.636,393.979,530.782z"/>
		
			<radialGradient id="SVGID_33_" cx="205.8193" cy="255.6533" r="4.3309" gradientTransform="matrix(1 0 0 -1 0 794)" gradientUnits="userSpaceOnUse">
			<stop  offset="0" style="stop-color:#FFFFFF"/>
			<stop  offset="1" style="stop-color:#151011"/>
		</radialGradient>
		<path fill="url(#SVGID_33_)" d="M208.135,543.019c-5.141,0.459-6.721-4.199-6.117-6.885
			C203.646,528.819,213.561,539.61,208.135,543.019z"/>
		
			<radialGradient id="SVGID_34_" cx="372.8359" cy="243.2188" r="7.7131" gradientTransform="matrix(1 0 0 -1 0 794)" gradientUnits="userSpaceOnUse">
			<stop  offset="0" style="stop-color:#FFFFFF"/>
			<stop  offset="1" style="stop-color:#151011"/>
		</radialGradient>
		<path fill="url(#SVGID_34_)" d="M366.193,549.649c0.967-0.115,1.307,1.166,2.039,0.508c0.641-0.494-0.301-1.553-0.256-2.297
			c0.986-1.564,1.389-3.746,2.805-4.588c4.211-2.5,10.801,2.18,8.92,7.902c-1.584,1.688-2.426,4.473-4.332,6.123
			C370.51,561.493,363.639,557.431,366.193,549.649z"/>
		
			<radialGradient id="SVGID_35_" cx="223.4795" cy="243.3955" r="5.9856" gradientTransform="matrix(1 0 0 -1 0 794)" gradientUnits="userSpaceOnUse">
			<stop  offset="0" style="stop-color:#FFFFFF"/>
			<stop  offset="1" style="stop-color:#151011"/>
		</radialGradient>
		<path fill="url(#SVGID_35_)" d="M220.885,544.804c0.014-0.004,0.053-0.246,0.254-0.258c4.641-0.17,11.635,8.41,6.373,11.477
			C221.061,559.772,212.889,545.952,220.885,544.804z"/>
		
			<radialGradient id="SVGID_36_" cx="246.1646" cy="231.5039" r="6.7863" gradientTransform="matrix(1 0 0 -1 0 794)" gradientUnits="userSpaceOnUse">
			<stop  offset="0" style="stop-color:#FFFFFF"/>
			<stop  offset="1" style="stop-color:#151011"/>
		</radialGradient>
		<path fill="url(#SVGID_36_)" d="M249.18,570.046c-7.029,0.918-10.01-5.949-8.412-11.986c0.6-0.627,0.473,0.385,1.273,0.256
			c0.662-0.189,0.887-0.812,0.766-1.785c6.125-6.209,12.055,6.648,7.65,10.453C250.773,568.741,249.529,568.94,249.18,570.046z"/>
		
			<radialGradient id="SVGID_37_" cx="344.0098" cy="227.0459" r="7.973" gradientTransform="matrix(1 0 0 -1 0 794)" gradientUnits="userSpaceOnUse">
			<stop  offset="0" style="stop-color:#FFFFFF"/>
			<stop  offset="1" style="stop-color:#151011"/>
		</radialGradient>
		<path fill="url(#SVGID_37_)" d="M349.621,559.843c0.541,1.84,0.975,3.791,1.787,5.359c-0.617,2.113-0.75,4.766-2.295,6.625
			c-2.549,3.062-9.277,5.121-11.723,2.295c-0.729-0.84-0.332-1.943-0.514-3.061c-0.805-4.906,0.137-10.416,4.082-11.984
			C343.451,558.093,347.408,558.194,349.621,559.843z"/>
		
			<radialGradient id="SVGID_38_" cx="305.5811" cy="215.1953" r="11.2588" gradientTransform="matrix(1 0 0 -1 0 794)" gradientUnits="userSpaceOnUse">
			<stop  offset="0" style="stop-color:#FFFFFF"/>
			<stop  offset="1" style="stop-color:#151011"/>
		</radialGradient>
		<path fill="url(#SVGID_38_)" d="M301.439,567.491c4.939-0.281,8.746,0.76,12.75,2.295c0.828,1.467,1.486,3.105,2.549,4.334
			c-0.318,2.326,0.732,5.148-1.275,6.883c-0.189,6.576-7.408,11-14.527,8.41c-1.814-2.07-6.316-3.977-5.104-7.391
			c-2.736-3.277-0.885-8.652,0.51-11.98C297.502,568.653,299.365,567.964,301.439,567.491z"/>
		
			<radialGradient id="SVGID_39_" cx="272.1133" cy="219.6299" r="6.7764" gradientTransform="matrix(1 0 0 -1 0 794)" gradientUnits="userSpaceOnUse">
			<stop  offset="0" style="stop-color:#FFFFFF"/>
			<stop  offset="1" style="stop-color:#151011"/>
		</radialGradient>
		<path fill="url(#SVGID_39_)" d="M277.986,579.474c-3.836,2.064-9.301,2.955-11.471-1.021c-1.107-2.031-1.209-4.859-1.02-7.902
			C272.361,563.36,281.631,569.981,277.986,579.474z"/>
	</g>
	<path d="M409.531,205.487c5.564,2.74,11.965,4.693,18.867,6.375c2.131,0.518,4.549,1.637,6.627,1.783
		c1.654,0.119,3.219-0.779,4.844-0.762c2.734,0.016,6.402,1.291,9.174,2.037c2.238,0.6,4.271,1.529,6.375,1.781
		c5.18-2.93,14.518-1.896,18.104,1.787c1.488,0.045,2.443-0.443,4.082-0.258c2.658,3.395,6.223,7.803,8.404,12.49
		c7.762,5.758,13.062,13.973,19.637,20.906c-0.424,0.395,0.09,0.992,0.252,1.531c4.137,5.795,7.551,12.338,10.967,18.861
		c0.039,0.473,0.861,0.156,1.014,0.51c2.193,6.787,6.27,12.756,9.182,19.377c2.896,6.604,5.859,13.17,9.18,19.375
		c-0.518,2.521,2.627,5.326,1.527,8.158c-0.717,1.836-3.262,3.777-5.1,5.609c-8.207,8.18-16.645,15.168-26.512,22.178
		c-1.586,1.127-3.061,2.346-4.586,3.57c-1.594,1.268-3.709,2.244-4.848,3.312c-0.387,0.367,0.055,1.498-1.02,1.277
		c-1.688,11.682-2.457,21.031-5.609,32.375c-2.854,1.645-5.992,3.01-8.922,4.588c-0.289,1.787-1.318,2.787-2.293,4.336
		c-1.43,2.27-4.09,4.262-8.416,4.844c-3.195,0.43-6.859,0.053-8.918-1.275c-5.494,1.51-11.945,2.775-17.08,2.039
		c-1.477,1.498-2.402,3.303-3.824,4.844c-1.469,1.588-3.92,2.494-4.59,4.846c-3.367,0.488-5.703,4.125-9.434,5.098
		c-12.389,7.354-17.094,27.992-17.586,46.656c-0.182,6.85,0.477,13.73,0.766,19.877c2.93,1.66,4.295,4.889,6.883,6.889
		c3.799,7.266,1.328,15.859,2.803,23.197c0.092,0.451,0.521,1.035,0.766,1.527c0.787,1.578,0.625,1.266,1.021,3.316
		c0.051,0.275,0.477,0.779,0.51,1.018c0.027,0.238-0.781,0.551-0.768,1.02c0.035,0.832,0.793,0.539,0.768,1.02
		c-0.117,1.871-0.92,4.242-2.043,5.867c1.291,4.664-0.326,9.037-1.271,12.746c-20.268,24.502-48.367,42.289-75.971,58.629
		c-1.072-0.131-1.424,0.447-2.291,0.514c-7.826,4.15-16.773,8.367-26.008,10.703c-13.867,3.518-28.508-1.404-39-6.119
		c-6.543-2.93-12.793-5.26-18.871-8.666c-3.191-1.789-6.215-3.619-9.176-5.354c-1.566-0.916-2.641-1.301-4.334-2.295
		c-10.436-6.115-22.156-13.182-32.375-19.631c-0.713-0.135-1.326-0.371-2.041-0.508c-8.26-6.871-19.641-10.605-26.256-19.117
		c-0.373-2.504,0.514-5.039,0.764-8.16c-3.354-3.441-7.809-8.105-6.371-14.023c0.193-1.557,1.545-2.844,1.018-4.33
		c1.416-0.457,1.498-2.24,2.041-3.568c2.027-1.543,3.641-3.496,5.352-5.357c-1.367-3.984,0.955-8.482,1.785-11.471
		c4.168-3.373,7.652-8.129,14.021-7.902c4.346-18.992-0.125-38.418-4.334-54.305c-0.676-2.564-1.506-4.234-1.785-7.391
		c-2.197-3.084-2.197-6.578-4.076-9.43c-3.213-4.867-9.545-7.445-11.217-13.77c-10.352-2.178-17.566-5.557-26.514-9.688
		c-6.568,5.488-16.322,0.498-16.822-7.393c-2.188-1.127-3.801-2.832-6.119-3.822c-2.205-7.4-4.213-14.994-5.867-22.945
		c-4.592-3.172-9.529-6.246-14.275-9.43c-6.074-4.082-12.35-8.188-18.354-12.748c-2.996-2.277-5.676-4.709-8.67-7.137
		c-0.926-0.752-1.668-1.9-2.549-2.551c-1.146-0.848-3.979-2.023-4.592-3.568c-0.779-1.992,2.062-4.432,1.785-6.629
		c6.838-14.508,14.965-29.436,23.705-42.83c1.455-1.439,3.105-2.672,3.574-5.1c4.592-4.889,7.33-10.072,11.471-15.299
		c1.598-1.119,3.018-2.416,3.822-4.33c0.801-0.049,0.693-1.006,1.787-0.768c0.164-1.445,1.66-1.568,1.785-3.057
		c7.539-7.588,14.705-15.551,22.945-22.438c2.357-0.445,3.07-2.537,5.609-2.803c2.059-4.646,6.391-7.033,9.941-10.199
		c5.062,0.367,11.848-2.748,15.297,2.039c17.125,3.031,28.084-5.145,41.555-9.941c-1.205-8.898,7.598-11.393,13.256-15.041
		c5.098-0.551,9.541-2.93,14.277-4.08c6.211-1.51,12.861-1.541,19.369-2.807c11.109-2.15,26.615-1.854,39.52-3.059
		c0.434,0.057,0.662-0.434,0.766,0c0.229,0.115,0.457,0.223,0.508,0.512c14.746-1.406,31.723-0.211,47.932,1.781
		c4.115,0.512,9.521,0.912,14.275,1.533c4.729,0.615,9.055,1.445,14.271,1.525c7.635,2.459,18.457,3.385,24.734,8.672
		C409.885,198.874,410.344,202.81,409.531,205.487z M228.02,208.036c6.533,5.947,15.742,9.896,24.732,12.492
		c3.146,0.906,6.225,2.637,9.43,3.312c5.238,1.107,10.758,1.609,16.061,3.061c2.092,0.572,4.59,1.037,7.395,1.525
		c2.85,0.508,5.664,1.42,8.412,1.789c9.467,1.264,19.156,1.707,28.805,1.275c2.648-0.117,5.242-1.008,7.902-1.275
		c5.25-0.525,8.893-0.982,13.258-1.789c4.457-0.816,9.199-1.672,12.49-1.781c16.029-4.791,34.121-7.518,42.826-19.633
		c1.146-2.67,0.824-5.02,1.277-7.391c-0.775-0.162-1.303-0.57-1.277-1.529c-6.902-3.842-14.85-3.979-23.705-5.357
		c-4.719-0.732-10.742-1.166-14.529-1.271c-2.619-0.076-4.754-0.217-6.629-0.512c-12.602-1.959-23.168-1.93-34.674-2.551
		c-1.707-0.092-3.602-0.506-5.354-0.508c-8.773-0.01-19.23,0.209-27.279,1.02c-6.73,0.678-14.146-0.025-21.412,2.295
		c-2.547-0.838-4.566,0.234-6.373,0.506c-10.43,1.59-19.857,3.279-28.809,7.395c-1.504,1.467-2.807,3.141-3.564,5.357
		C227.369,205.628,228.326,206.202,228.02,208.036z M405.705,211.095c-0.297,1.311-1.709,1.521-2.033,2.803
		c-4.67,3.064-9.48,6.115-14.785,8.162c-10.637,4.1-22.041,8.014-34.928,9.943c-3.164,1.664-7.416,1.525-10.965,2.295
		c-0.094,0.949,1.809,2.102,1.529,4.076c11.713-3.645,24.227-7.828,35.436-10.703c12.281-3.156,25.189-7.25,37.988-9.689
		c1.75-0.334,4.447,0.543,5.859-1.275C417.121,215.487,411.895,212.812,405.705,211.095z M226.236,216.702
		c-2.441-3.451-7.707-3.512-10.455-0.254c6.986,1.836,16.18,4.781,22.688,6.373C234.844,220.333,230.322,218.735,226.236,216.702z
		 M440.635,220.782c-0.744-0.145-1.938-0.895-2.551-0.768c-3.854,0.836-8.846,1.775-14.281,3.064
		c-2.98,0.705-6.051,1.148-9.174,1.783c-3.625,0.738-7.316,2.158-10.963,2.807c-17.609,3.125-37.795,7.441-54.047,14.018
		c-2.855,0.711-4.957,2.184-8.16,2.551c-1.004-1.539-1.129-3.961-1.779-5.865c-5.295-4.438-12.639-3.178-18.869-0.764
		c-0.77,1.525-2.385,2.203-3.82,3.062c-0.584,2.557-2.625,3.656-2.295,7.135c1.857,2.287-0.34,9.076,3.312,10.197
		c3.639-2.385,7.246-3.393,11.727-4.588c2.412-0.645,4.951-1.674,7.389-2.299c8.053-2.045,17.084-3.828,24.738-5.861
		c1.398-0.375,2.893-0.018,4.328-0.254c5.238-0.875,10.641-2.611,16.059-3.826c2.16-0.484,4.648-0.16,6.375-0.766
		c2.957-1.033,7.111-1.736,10.705-2.295c12.77-1.969,24.227-5.217,35.947-6.115c-0.105-5.469,6.688-7.748,10.967-10.457
		C444.697,220.667,442.498,221.147,440.635,220.782z M165.814,225.624c1.297,1.512,2.902,2.711,6.119,2.297
		c0.363-1.938,1.025-3.566,1.275-5.607C170.273,220.265,166.494,222.108,165.814,225.624z M276.455,239.901
		c-4.789-0.594-8.623-3.391-12.998-3.568c-2.096-2.01-5.318-2.168-8.158-3.061c-6.342-1.984-12.93-4.67-18.867-5.354
		c-6.57-2.471-14.688-4.504-21.668-5.1c-0.26-0.342-0.244-0.949-0.768-1.02c-2.816,0.193-7.803-1.221-9.941,0.512
		c-0.273-0.578-1.604-0.098-2.295-0.256c-1.576,1.057-3.984,1.287-5.867,2.037c0.729,2.52,4.785,3.006,4.332,5.863
		c4.246,1.309,9.605,1.586,14.533,2.805c4.463,1.102,10.455,2.488,16.057,3.824c5.457,1.299,12.533,3.945,17.848,4.08
		c21.133,5.242,41.941,9.645,57.109,20.904c6.316-4.992,3.945-18.125-1.273-21.93c-0.533-0.402-1.344-0.527-2.299-0.51
		c-0.227-0.537-0.775-0.756-0.766-1.527c-3.529-0.1-6.041-0.945-10.197,0.256c-1.059,0.471-1.111,1.947-2.805,1.783
		c-0.639,1.66-1.604,2.988-2.799,4.082C282.9,242.128,279.018,241.671,276.455,239.901z M468.678,222.313
		c-1.887-0.627-4.246-1.51-5.357-0.256c0,1.453-1.473,2.496-1.018,4.588c2.15,1.422,7.229,2.471,8.408-1.02
		C469.66,224.597,469.016,223.452,468.678,222.313z M446.752,224.862c1.504-0.031,2.748,0.895,3.824,0.514
		c7.434,4.691,10.664,12.098,12.49,21.664c4.57,15.502,8.242,33.268,8.158,51.75c-0.035,8.801-1.074,18.092-2.035,27.025
		c-0.686,6.346-1.273,12.643-2.041,18.609c-0.314,2.447-1.482,4.773-1.785,7.137c-0.287,2.275-0.391,4.594-0.764,6.885
		c-1.109,6.809-3.273,15.463-6.121,19.887c-1.359,7.818-3.969,13.215-6.879,19.117c5.004-1.23,11.801-1.035,11.219-7.141
		c3.832-3.738,10.73-9.092,17.336-4.074c1.199-0.502,2.357-1.043,3.568-1.529c1.18-3.445,1.746-7.24,3.064-9.943
		c0.51-7.254,2.957-13.33,4.08-19.631c1.084-6.096,1.092-12.451,2.037-19.375c1.568-11.479,2.271-22.229,1.783-31.613
		c0.871-11.693-1.398-20.049-1.783-30.59c-0.254-6.615-3.209-13.604-3.061-19.633c-1.523-1.902-0.912-6.715-3.059-8.668
		c-0.484-3.762-1.447-5.5-3.576-7.65c0.033-0.635,0.48-0.787,0-1.275c-2.598-4.795-5.443-9.342-9.176-13
		c-1.934,1.738-0.449,3.393-2.039,5.354c-2.742,3.369-9.902,3.51-11.984,0.254c-0.59-0.928-0.191-2.191-0.51-3.057
		c-0.234-0.641-1.111-0.49-0.762-1.275c-0.096-1.113,1.105-0.93,0.762-2.295C455.236,222.067,448.973,222.259,446.752,224.862z
		 M162.756,222.313c-0.289,1.678-1.369,2.064-2.803,2.037c-8.039,8.613-14.51,18.803-19.885,30.078c0,0.684,0,1.361,0,2.043
		c-1.391,0.453-0.77,1.994-1.273,3.055c-0.305,0.637-1.205,1.152-1.531,1.787c-1.15,2.254-1.572,5.227-2.549,7.904
		c-0.262,0.719-1.014,1.32-1.275,2.041c-4.74,13.09-6.318,30.703-7.395,46.904c-0.066,1.037-0.322,1.84-0.256,2.807
		c1.123,15.139-0.215,27.979,4.334,40.277c1.352,0.809,4.09,1.471,4.078,2.805c-1.648-0.225-2.5-1.24-4.078-1.529
		c0.398,5.99,2.438,12.51,4.078,18.102c1.535,0.814,0.75,2.475,2.295,3.059c0,0.426,0,0.85,0,1.275
		c1.367,1.182,3.008,2.096,4.59,3.059c2.412-0.432,4.41-0.332,6.883-0.254c1.883,2.215,6.17,3.521,5.607,6.627
		c1.357-1.047,3.387,1.984,3.824,1.018c-6.871-22.732-10.805-48.482-9.945-75.457c0.293-9.178,0.658-18.91,2.043-26.516
		c1.797-9.873,3.879-21.047,7.389-28.553c0.885-1.891,1.174-3.609,1.277-5.357c0.695,0.189,0.514-0.504,1.021-0.504
		c0.223-3.539,2.234-5.834,3.312-7.908c0.17-0.332-0.223-0.801,0-1.273c0.91-1.92,1.965-3.129,2.801-4.586
		c1.129-1.973,1.498-4.812,4.082-5.865c3.764-6.943,9.637-11.775,16.566-15.553c-2.871-0.832-6.27-0.91-9.684-1.02
		c0.604,3.508-1.543,6.207-3.314,8.16c-5.293,0.703-11.9-2.346-9.434-8.668C163.268,222.313,163.014,222.313,162.756,222.313z
		 M183.662,228.427c-2.432,1.416-2.998,1.992-5.1,4.084c-1.055,1.051-2.449,2.078-3.314,3.062c-0.881,0.998-1.158,2.68-2.039,3.564
		c-0.416,0.422-1.195,0.361-1.527,0.766c-0.479,0.59-0.58,1.404-1.02,2.037c-1.041,1.5-2.49,2.717-3.57,3.828
		c-0.893,4.258-3.432,7.201-4.844,10.451c-0.984,2.26-1.16,5.111-2.039,7.393c-0.645,1.658-1.119,3.076-1.783,5.102
		c-0.662,2.02-2.262,3.854-2.803,5.859c-1.762,6.529-2.115,14.219-4.334,19.889c-1.203,7.623-0.672,14.811-1.023,22.686
		c-0.322,7.242-0.736,14.359-0.508,21.416c0.115,3.477,0.779,7.125,1.021,10.703c0.746,11.025,3.254,24.014,5.861,33.906
		c1.186,4.498,2.889,8.73,4.334,13.002c2.582-0.285,1.895,2.695,4.332,2.551c-1.484-1.4-1.725-3.186-2.291-6.121
		c-0.471-2.42-1.523-4.959-2.041-7.646c-2.527-13.088-4.918-28.012-5.352-39.77c-0.863-0.621-0.361-1.615-0.508-2.549
		c-0.107-0.641-0.727-1.447-0.771-2.039c-0.029-0.387,0.498-1.07,0.51-1.529c0.02-0.701-0.199-1.299-0.254-2.039
		c-1.201-16.164,1.168-38.102,4.328-53.279c0.422-0.039-0.262-1.064,0-1.787c1.58-3.6,1.441-8.078,2.555-11.98
		c3.664-12.906,11.227-26.803,18.607-36.455c2.889-3.785,5.352-5.686,9.43-7.65C185.943,225.591,185.502,227.358,183.662,228.427z
		 M192.076,226.646c1.566,0.213,2.174,1.572,4.076,2.037C195.4,227.558,193.477,225.497,192.076,226.646z M269.318,233.274
		c3.951,1.791,8.523,3.453,13.514,4.846c1.365-1.691,3.51-2.607,4.844-4.332c-12.734-1.766-22.775-3.527-34.16-6.373
		C258.092,230.058,263.783,231.589,269.318,233.274z M452.617,388.274c0.695-1.537,2.117-3.975,2.037-6.119
		c3.08-3.061,2.332-8.377,4.844-11.982c2.078-7.658,3.295-17.338,4.336-24.217c1.562-10.371,3.254-20.611,4.074-31.357
		c1.592-20.635-0.176-42.611-6.373-62.713c0.195-2.168-0.449-3.316-0.764-4.59c-1.389-5.553-2.967-9.383-5.355-13
		c-0.375-0.572-0.445-1.346-0.766-1.785c-3.309-4.5-11.668-7.449-14.531-1.02c3.572,0.627,5.766-1.77,10.201-1.021
		c1.393,4.559,3.65,8.246,5.352,12.494c4.75,15.656,6.295,29.6,8.162,48.436c0.299,3.094,0.299,7.443,0.254,10.967
		c-0.152,10.266-1.219,20.941-2.039,29.824c-0.332,3.619-1.535,7.418-1.529,10.963c0.02,7.633-2.344,14.609-3.82,20.648
		c-1.604,6.529-3.357,12.236-5.1,18.609c-0.664,2.422-1.945,4.18-2.805,6.373c-0.785,2.014-0.689,4.223-1.531,5.869
		c-0.57,1.115-2.262,1.846-2.039,3.311C449.719,398.284,450.568,392.772,452.617,388.274z M305.266,271.261
		c-3.229-4.25-6.184-8.773-11.723-10.707c-0.49-1.129-1.881-1.354-2.299-2.551c-1.922-0.287-3.549-0.875-5.1-1.529
		c-1.158-1.898-4.639-1.479-6.115-3.059c-11.486-3.096-22.164-6.928-33.65-10.453c-2.373-0.729-5.111-0.842-7.654-1.531
		c-0.602-0.162-1.174-0.797-1.783-1.018c-5.311-1.912-11.814-1.988-17.592-3.314c0.053-0.559-0.203-0.811-0.762-0.766
		c-4.379-0.607-9.057-2.195-13.512-3.061c-6.832-1.326-13.494-3.201-18.355,1.02c-0.32,0.955-0.91,1.639-1.277,2.549
		c-0.98-0.221-0.902,0.625-1.525,0.768c-5.5,7.053-11.094,16.172-14.787,25.492c-0.684,1.723-1.213,3.529-1.787,5.355
		c-1.301,4.146-3.221,9.459-2.803,12.746c-3.162,5.301-2.836,14.398-5.352,19.633c0.732,1.902-0.635,4.844,0.254,6.883
		c-1.562,4.922-2.328,10.4-1.787,15.803c-0.186,0.41-1.248-0.057-1.018,0.766c0.406,6.348,0.92,11.674,1.531,17.082
		c3.25,2.797,7.301,4.334,11.215,6.625c0.602,0.355,0.699,1.145,1.273,1.529c1.602,1.08,3.586,1.164,5.865,2.039
		c3.74,1.445,6.66,4.479,11.471,4.334c9.096,5.35,22.258,5.846,35.184,7.652c0.938,1.332,3.822-0.654,3.312,2.293
		c-4.984-0.078-9.551-0.842-14.785-1.531c-0.988-0.053-0.689,1.184-1.783,1.023c-6.006-1.402-12.615-2.018-18.867-3.062
		c-7.26-1.213-14.115-3.492-20.908-5.355c-2.816-1.854-7.229-3.475-10.193-4.33c0.369,4.406,2.027,8.998,2.803,13.766
		c0.285,1.75-0.08,3.613,0.26,5.35c0.682,3.533,2.26,7.365,3.568,11.221c2.217,6.555,3.828,12.926,7.646,16.57
		c1.91,0.219,3.629,2.203,5.867,3.059c1.289,0.492,2.834,0.225,3.822,1.273c2.279-0.449,4.004,0.865,6.119,1.023
		c2.539,0.191,5.613-0.445,8.41-0.77c6.238-0.711,13.092-2.926,18.865-4.332c3.758-0.91,7.303-1.17,10.451-2.801
		c12.174-3.174,22.812-6.305,33.906-10.457c-0.121,0.809,0.459,0.9,0.256,1.787c-7.445,3.258-14.016,7.396-21.666,10.457
		c-1.146,3.451-0.057,7.521-1.279,10.451c0.814,3.514,2.607,6.064,4.336,8.664c1.902-0.281,2.508,0.727,3.312,1.531
		c4.742,1.787,12.717,2.355,18.867,3.572c-4.541,2.088-11.68,1.58-15.043,4.844c-0.662,0.631-1.25-0.252-2.297,0
		c-0.541,0.947-2.398,1.494-3.059,2.551c-0.266,0.426,0.26,1.459,0,2.039c-0.453,1.01-1.564,1.133-1.785,1.783
		c-0.309,0.938,0.203,1.855,0,2.801c-2.611,7.566,1.404,17.008,2.807,22.945c3.193,3.262,5.01,7.91,10.193,9.18
		c0.344,0.508,0.488,1.211,0.766,1.785c5.566,3.039,12.145,1.93,19.119,3.57c0.684,0.572-0.357,1.275,0.256,1.783
		c-2.848,0.686-4.846,1.537-7.137,2.041c-0.973,0.213-2.131-0.035-2.803,0.254c-1.533,0.654-2.529,2.539-3.822,3.316
		c-0.709,0.424-1.621,0.336-2.295,0.762c-2.098,1.328-2.711,4.164-5.098,5.098c-2.799,4.846-1.521,11.281-1.529,16.316
		c1.404,1.061,1.168,3.762,2.295,5.098c-0.291,0.562-0.658,1.041-0.512,2.039c1.758,4.568,3.438,10.512,6.373,14.021
		c0.309,1.074-0.412,1.115-0.51,1.787c3.055,6.25,5.992,11.492,8.67,17.08c2.602,0.691,4.809,1.869,7.137,2.549
		c4.33,1.262,8.215,1.387,11.215,2.555c2.76,1.068,5.758-0.131,8.67,0.764c1.576-0.928,2.791-0.873,4.59-1.277
		c3.055-3.58,2.461-10.793,5.096-14.785c0.238-5.318,0.457-11.635,1.279-17.08c0.135-0.9,0.369-2.451,1.527-2.809
		c-0.443,8.742,0.307,15.699-0.766,24.732c0.023,0.99,1.242,0.791,1.273,1.783c-1.213,3.189,1.783,4.043,2.039,6.629
		c1.529,0.004,2.531,0.527,3.572,1.016c11.633-2.465,20.4-7.807,30.08-12.234c6.033-13.941,12.877-31.49,9.941-48.184
		c-2.158-1.691-3.758-4.699-6.373-5.859c-2.818-1.262-7.174-2.752-10.197-3.316c-8.383-1.566-18.736-2.832-26.764-1.018
		c-0.262,1.438-1.191,2.174-2.299,3.312c-1.08,2.725-0.275,5.201-0.256,7.393c0.035,3.141-0.711,6.094-1.018,9.18
		c-0.137,1.365,0.736,3.238-0.51,4.08c-0.221-3.768-0.473-7.396-0.768-11.221c-0.262-3.41-0.203-4.666-1.018-6.629
		c-0.5-1.195-0.617-2.939-1.02-3.566c-0.814-1.268-2.553-1.34-2.551-3.062c-7.316-2.039-14.855-0.705-22.436-1.779
		c9.428-2.197,20.863-2.252,26.51-9.18c2.264-8.836,0.561-16.814,2.807-25.49c1.025,8.688,0.174,19.492,2.805,29.057
		c2.975,0.936,4.797,3.021,8.92,2.807c2.715,2.465,7.018,1.66,10.709,1.785c10.021,0.326,24.361-0.301,30.338-7.65
		c2.018-2.486,3.529-5.559,5.354-8.408c1.607-2.516,2.561-5.203,4.33-7.906c1.438-5.639,4.293-11.473,3.062-18.1
		c-0.891-0.711-1.41-1.365-2.293-2.549c-8.492-3.949-18.586-4.957-28.297-7.398c7.26-1.633,24.574,1.521,30.846-3.568
		c2.393-1.936,3.451-6.295,4.08-9.682c-0.221-1.059-0.688-1.871-0.766-3.062c-3.549-1.211-6.471-2.594-9.436-4.082
		c-1.918-0.967-4.504-1.838-4.842-3.82c1.836,0.281,4.783,1.445,6.119,3.059c15.828,4.795,31.973,10.887,47.924,9.176
		c0.598,0.086,1.059,0.307,1.531,0.512c2.059-1.086,4.434-1.855,6.883-2.551c4.121-2.762,8.48-5.285,11.729-8.918
		c0-0.508,0-1.021,0-1.535c3.678-4.781,5.881-9.598,7.395-16.312c4.176-8.258,5.113-17.053,7.391-26
		c-9.061,3.523-17.969,7.35-27.787,9.43c-0.816,0.223-0.527-0.664-1.021-0.766c-1.658,1.654-5.447,1.182-7.135,2.803
		c-1.25-0.885-3.52-0.469-4.59,0.256c-14.281,0.797-32.617,0.434-45.375-1.779c2.746-1.602,6.445-0.455,9.941-0.26
		c2.451,0.141,4.773-0.359,7.139-0.256c12.568,0.555,27.572,1.496,38.748-4.334c0.512,0,1.023,0,1.531,0
		c4.109-2.949,9.219-3.266,13.256-5.352c3.139-1.625,5.303-4.473,8.918-5.102c1.148-2.703,6.891-2.715,8.414-5.354
		c0.322-0.557,0.742-3.936,1.021-5.867c2.037-14.092,3.221-33.766,2.551-50.221c-0.098-2.334-0.406-5.262-0.77-7.898
		c-0.457-3.371-0.41-6.738-0.766-9.945c-0.182-1.715-1.027-3.588-1.271-5.355c-1.309-9.484-3.324-21.438-6.627-29.57
		c-4.283-0.945-7.969-0.773-11.223-2.039c-3.406,1.064-7.32,0.551-11.207,1.018c-2.312,1.555-5.141,1.264-7.656,1.787
		c-4.258,0.885-8.418,2.771-12.742,3.57c-12.803,2.348-24.248,4.166-35.186,6.373c-4.084,0.818-8.393,2.287-13,3.311
		c-8.523,1.908-15.834,4.791-23.453,6.883c-3.918,1.08-7.699,1.918-10.707,4.588c-5.639,1.846-7.818,7.139-12.49,9.947
		c-2.008,4.016-2.812,10.24-2.549,16.316c0.102,2.34,0.561,5.898-1.023,5.863c1.01,0.26,1.121,1.432,1.787,2.035
		c8.545-1.992,14.064-7.008,22.947-8.668c7.305-3.736,14.961-4.598,23.195-7.137c0.48,0.312,1.029,0.031,2.039,0.258
		c2.811-1.797,7.146-1.615,10.959-2.295c5.584-0.99,10.916-3.189,15.555-2.805c-2.277,1.521-5.082,1.035-7.648,1.533
		c-7.234,1.4-14.068,4.52-20.648,5.096c-0.619,0.572-1.311,1.07-2.043,1.525c-3.479-0.146-6.082,1.703-9.176,2.805
		c-1.551,0.559-3.301,0.535-4.844,1.02c-3.107,0.977-6.297,2.766-8.92,3.824c-6.045,2.441-12.479,4.945-16.572,8.924
		c-0.518,1.352-1.215,2.52-2.293,3.314c-2.385,7.166-0.363,16.314,0.768,23.195c0.285,1.764,0.037,3.273,0.256,4.846
		c1.396,10.295,10.613,15.682,16.824,20.65c5.484,1.939,11.102,5.383,16.566,7.393c1.666,0.611,4.34,1.092,5.102,2.553
		c-1.062,0.688-2.539-0.643-4.078-1.023c-2.18-0.531-4.617-0.748-6.371-1.527c-0.91-0.395-0.156,0.871-0.773,0.766
		c-1.764-1.549-4.27-2.354-7.133-2.803c-2.033-1.197-3.676-2.779-6.629-3.061c-2.562-2.449-5.57-4.457-9.176-5.867
		c-2.926-4.297-7.057-7.385-9.18-12.488c-2.543,2.219-4.271,5.248-6.117,8.158c-4.689,4.49-10.938,7.422-18.607,8.926
		c-4.775,2.105-9.801,3.965-15.807,4.842c-9.199,3.289-18.021,5.285-28.555,6.371c-0.582,0.281-1.355,0.76-2.293,1.021
		c-1.791,0.502-7.992,1.357-8.158-0.256c7.215-2.795,16.826-3.992,24.221-5.867c2.5-0.633,5.098-0.652,7.393-1.271
		c1.387-0.375,2.842-1.291,4.334-1.785c6.482-2.154,11.215-3.979,16.82-6.375c6.062-2.59,10.955-4.613,15.043-7.65
		c1.93-2.232,3.02-5.305,5.1-7.393c0.15-0.826-0.174-1.186-0.256-1.783c0.68-0.166,0.969-0.73,1.527-1.02
		c0.445-3.613,3.193-10.143,1.787-14.021c0.439-1.988,1.107-5.248,1.018-7.902c-0.021-0.668-0.801-1.461-0.764-2.293
		c0.021-0.572,0.543-1.203,0.51-1.785c-0.15-2.676-1.723-6.615-3.061-7.646c-0.732-0.566-1.791-0.807-2.805-0.77
		c-9.967-7.193-24.385-9.943-36.199-15.295c2.428-1.014,5.654,1.213,7.9,2.041c9.914,1.242,18.816,6.092,28.811,8.412
		c1.518-1.012,2.182-0.098,3.57-0.768C306.885,285.612,305.061,277.147,305.266,271.261z M142.363,239.647
		c-1.295,1.418-2.768,2.725-4.082,4.08c-7.686,7.971-16.777,17.584-22.432,26.002c-0.941,1.4-2.439,2.566-3.312,4.078
		c-0.395,0.678-0.375,1.596-0.77,2.295c-2.801,5.014-6.717,9.428-9.43,14.531c-3.398,6.387-6.295,13.787-9.688,19.883
		c-1.402,5.746-3.34,9.754-4.844,15.043c7.252,7.863,15.652,15.342,24.477,21.416c2.953,2.031,5.861,4.641,9.43,5.352
		c-1.152-2.416-0.219-5.678-1.275-8.412c0.748-2.852,0.188-6.543,0.256-9.941c0.303-14.721,2.402-32.678,5.354-47.672
		c0.234-0.451,0.943-0.424,1.018-1.02c0.383-8.625,4.422-15.811,6.379-23.707c0.809-0.152,0.785,0.479,1.273,0
		c0.568-3.398,3.01-4.904,2.805-8.41c3.533-6.41,7.242-12.639,10.963-18.867c0.266-0.014,0.199-0.326-0.254-0.258
		C146.021,235.905,144.443,237.368,142.363,239.647z M312.404,239.901c0.598-1.611,2.029-2.387,2.547-4.076
		c-2.711-0.762-4.996-0.104-8.414-0.768C308.566,236.601,310.311,238.425,312.404,239.901z M383.529,241.94
		c0.898-0.08,0.625-0.697,1.527-0.254C385.066,240.565,383.475,241.413,383.529,241.94z M494.428,261.825
		c-0.516,3.195,0.824,5.596,1.273,8.926c2.906,21.553,3.703,51.865,1.531,72.654c3.275-0.918,6.576-3.936,8.922-6.627
		c7.752-5.078,13.148-12.516,19.117-19.375c-0.211-1.57,1.051-1.666,1.023-3.059c0.346-1.115-0.992-0.545-0.768-1.529
		c-0.4-6.461-4.225-11.41-5.098-17.338c-0.578-0.695-0.982-1.572-1.533-2.291c-3.613-10.326-7.992-19.881-13.508-28.299
		c-3.812-8.766-9.234-15.914-15.551-22.178C491.004,249.876,492.771,255.632,494.428,261.825z M465.107,392.862
		c0.062,2.082,3.564,2.932,5.863,2.551c2.844-0.469,5.572-3.561,6.121-5.352c-1.076-1.137-0.008-2.117-0.77-3.062
		C472.656,385.813,465.01,389.806,465.107,392.862z M141.342,390.567c-1.266,4.76,7.447,7.82,8.668,2.295
		C148.666,390.991,142.377,386.673,141.342,390.567z M189.014,410.452c0.471,2.254,2.17,3.27,3.826,4.334
		c1.752,3.002,4.094,5.42,7.133,7.139c0,0.336,0,0.68,0,1.02c3.701,3.053,7.104,7.611,9.688,11.473
		c0.574,0.848,0.723,1.926,1.277,2.803c2.35,3.713,6.311,7.033,7.137,10.959c0.818,0.291,1.248,0.963,1.787,1.535
		c1.23,3.695,2.883,6.969,4.846,9.941c-0.848,1.621,1.887,3.199,0.768,5.098c-0.691-0.82-1.977-2.188-1.281-3.572
		c-3.578-2.623-3.658-8.746-8.156-10.449c0.084-0.938-0.283-1.416-0.51-2.039c-5.123-4.736-8.451-11.264-13.764-15.807
		c5.754,20.641,6.959,40.943,4.844,61.441c-1.678,4.734-2.891,8.488-0.258,12.236c3.969,5.639,13.266,10.078,17.59,14.529
		c2.449,0.607,3.523,1.883,5.357,3.059c1.211,0.781,2.383,1.58,3.564,2.295c2.598,1.568,5.693,2.383,7.906,3.822
		c0.418,0.273,0.555,1.014,1.02,1.281c1.201,0.676,3.688,1.088,4.59,1.527c0.342,0.164,0.152,0.762,0.508,1.016
		c0.309,0.225,1.195,0.055,1.527,0.254c4.559,2.762,9.172,4.959,14.021,7.141c1.881-0.354,2.303,0.752,3.824,0.766
		c-4.447-7.461-9.715-15.488-13.51-23.453c-4.387-9.199-9.293-21.039-6.119-32.887c2.514-2.756,4.947-5.588,8.162-7.648
		c2.053-0.582,3.656-1.613,5.098-2.807c-10.268-0.359-14.055-7.189-18.102-13.764c-1.162-5.492-6.148-12.699-6.375-19.121
		c-0.295-8.258,0.865-16.096,7.648-19.629c-1.66-0.637-3.215-1.379-4.844-2.039c-1.875-3.393-4.928-5.617-4.846-10.963
		c0.076-0.672-0.988-0.201-0.764-1.021c-0.188-2.918-0.467-5.162-0.766-6.883C219.492,405.304,204.111,410.327,189.014,410.452z
		 M386.33,409.435c-1.357,2.967-2.844,8.104-4.328,10.963c-1.156,0.219-1.748,1.254-2.805,1.781
		c-1.668,0.84-3.715,1.084-5.355,2.041c-0.199,1.055,1.219,0.479,1.02,1.525c5.996-0.186,8.586,6.619,8.412,10.967
		c-0.137,3.393-2.264,6.533-2.799,8.67c-0.387,1.494-0.195,1.67-0.77,2.801c-0.701,1.383-0.992,1.375-1.527,2.295
		c-0.529,0.898-0.363,2.275-0.768,3.059c-0.156,0.299-0.977,0.574-1.271,1.021c-0.416,0.619-0.389,1.732-0.77,2.293
		c-0.41,0.605-1.256,0.859-1.783,1.527c-2.445,3.082-4.607,7.658-6.627,9.689c-1.619,1.621-3.863,2.285-4.848,3.822
		c-0.609,0.182-0.939,0.123-2.039,0.26c-0.631,0.299-0.256,1.613-1.016,1.783c-3.5-0.494-8.703,1.18-12.24,2.293
		c4.07,0.262,5.598,3.072,9.434,3.57c0.502,1.449,1.6,2.312,3.059,2.803c3.424,4.99,3.779,13.381,1.018,18.613
		c-1.529,12.064-7,20.189-9.43,31.354c1.436-0.176,2.121-1.105,3.061-1.783c10.506-5.131,19.639-11.631,28.553-18.354
		c3.254-2.211,7.301-4.449,10.453-7.396c2.338-2.186,4.457-5.467,6.627-7.9c0.912-1.023,2.168-1.559,2.805-2.551
		c1.568-2.438,2.145-6.098,1.783-8.41c-0.869-5.57-1.215-14.621-1.02-18.104c0.729-12.754,1.346-24.975,4.59-36.709
		c-11.057,10.018-16.576,25.57-24.219,39.002c-0.375-2.879,1.926-5.01,2.551-7.645c0.863-3.662,1.422-5.303,2.551-8.158
		c2.211-5.621,5.402-10.355,7.393-15.555c1.555-1.418,2.83-3.123,3.312-5.609c2.611-2.572,4.797-5.57,6.629-8.92
		c3.359-2.031,7.096-5.791,10.705-8.41C405.068,417.128,396.01,411.011,386.33,409.435z M410.299,493.054
		c-0.045,3.355-1.576,5.221-2.805,7.389c-4.555,3.35-8.941,6.865-13.002,10.709c-1.016-0.252-0.77,0.758-1.785,0.504
		c-4.346,4.582-10.635,7.213-15.805,10.971c-5.543,2.951-10.096,5.578-16.316,8.666c-3.479,1.727-6.846,3.621-9.939,5.355
		c-1.543,0.863-2.777,1.883-4.078,2.551c-0.852,0.43-1.902,0.34-2.807,0.77c-2.658,1.25-5.385,3.861-8.666,4.076
		c-0.26,0.34-0.244,0.947-0.77,1.014c-6.746,1.18-11.883,5.264-19.119,5.102c-6.49,3.506-16.283,3.104-25.492,3.064
		c-0.691-0.615-1.279-0.658-2.037-0.768c-8.199-1.215-16.578-2.219-23.965-5.102c-2.279-0.883-5.092-2.711-6.885-3.57
		c-3.936-1.877-8.1-3.033-11.979-5.098c-4.73-2.514-9.918-5.281-14.281-7.65c-4.012-2.176-7.441-5.111-10.959-7.393
		c-1.084,0.062-1.369-0.664-2.551-0.506c-1.043-1.51-2.684-2.42-4.588-3.064c-2.658-2.857-8.826-6.711-12.75-9.941
		c-1.205-0.99-2.617-2.963-2.551-4.586c0.162-3.918,4.322-2.926,5.098-6.629c-4.072,0.602-6.762,2.582-8.918,5.098
		c-0.594,2.633,0.369,6.982,3.57,8.414c0.477,0.482-0.152,0.463,0,1.273c0.902,0.277,1.121,1.254,2.293,1.273
		c6.391,7.547,16.008,11.871,24.219,17.59c9.648,3.832,17.16,9.486,27.025,12.75c2.779,2.152,6.088,3.176,9.688,4.844
		c2.336,1.082,4.73,2.059,7.135,2.805c3.535,1.094,7.135,2.484,10.455,3.312c0.488,0.121,0.99-0.352,1.531-0.254
		c0.338,0.061,1.191,0.613,1.783,0.764c3.516,0.896,6.203,1.828,9.686,1.018c6.58,2.209,12.822-0.469,19.885-0.254
		c5.734-2.316,13.023-3.281,19.119-5.354c1.617-0.549,2.891-1.893,4.588-1.529c2.062-1.633,5.002-1.691,7.654-2.807
		c4.936-2.084,9.785-5.268,15.039-6.883c4.529-3.627,11.186-5.129,15.549-8.92c6.172-3.043,11.357-7.207,17.082-10.963
		c2.545-1.668,4.801-3.586,7.137-5.098c2.188-1.412,3.105-2.377,5.102-4.082c3.23-2.754,7.383-5.059,8.918-8.408
		c0.316-0.688-0.006-1.637,0.258-2.295c0.316-0.811,1.24-1.318,1.527-2.039c0.383-0.955-0.195-2.127,0.766-2.807
		c-1.014-1.531-1.098-4.008-3.566-4.08C409.771,492.728,409.986,492.94,410.299,493.054z M400.865,516.759c-0.34,0-0.682,0-1.02,0
		c-4.951,4.643-11.516,7.686-16.828,11.982c-0.719,0.043-1.062,0.469-1.779,0.512c-7.533,5.35-17.168,11.125-26.004,15.043
		c-8.732,3.861-18.432,8.117-27.533,10.705c-1.824,0.518-3.822,0.664-5.611,1.271c-1.719,0.59-3.248,1.645-4.846,2.039
		c-6.617,1.664-14.459,2.158-21.412,3.062c-3.01,0.391-5.291,0.41-6.881-0.512c-1.957,0.322-2.93-0.518-4.082-0.764
		c-1.586-0.346-3.359-0.158-4.842-0.508c-2.115-0.502-4.07-1.635-6.121-2.293c-3.699-1.197-7.529-1.84-11.217-3.064
		c-3.15-1.039-6.096-3.09-9.174-4.59c-1.4-0.678-2.893-1.043-4.334-1.785c-1.551-0.793-3.211-1.113-4.59-1.785
		c-0.678-0.324-1.107-1.195-1.785-1.527c-2.23-1.096-3.697-1.488-5.865-2.293c-2.217-0.832-4.014-2.727-6.115-3.824
		c-0.516-0.27-1.285-0.023-1.785-0.256c-0.438-0.209-0.611-1.01-1.02-1.275c-1.881-1.223-4.641-2.158-6.883-3.314
		c-3.729-1.928-7.281-3.893-10.199-6.115c-0.693-0.527-1.604-0.539-2.295-1.021c-0.572-0.4-0.932-1.357-1.527-1.783
		c-2.441-1.744-5.432-3.113-7.139-4.846c-2.129-2.166-3.775-4.553-6.373-6.117c-0.439-1.439-2.217-3.939-3.057-3.314
		c0.674,1.555-0.766,4.66-1.023,7.395c2.309,1.52,4.412,3.236,6.119,5.355c0.854,5.527,1.473,15.643-5.865,16.312
		c0.949,1.588,0.854,4.451,1.021,6.117c1.686-0.496,1.426,0.953,2.803,0.77c5.27,5.008,11.012,9.547,18.102,12.742
		c11.961,8.861,26.342,15.299,39.258,23.199c4.52,0.922,8.412,4.326,13.008,6.375c0.951,0.426,2.117,0.324,3.053,0.764
		c3.367,1.588,6.303,3.449,9.943,4.59c1.229,0.385,2.168,1.08,3.312,1.529c2.883,1.139,5.764,1.654,8.414,2.553
		c1.441,0.482,2.383,1.518,3.824,1.783c5.127,0.941,10.023,1.781,14.018,1.273c1.678-0.215,3.908-1.32,5.869-1.781
		c4.381-1.031,7.609-2.402,11.473-2.805c12.014-5.15,24.529-9.805,34.412-17.084c1.838-0.15,3.303-1.568,4.846-2.551
		c6.051-3.83,13.525-7.787,19.117-12.488c8.596-6.104,16.453-12.947,23.965-20.139c1.133-2.523,3.797-3.514,4.076-6.887
		c1.861-0.777,4.336-3.072,3.061-5.352c-1.086,0.777-2.086,1.645-3.822,1.781c-0.584-0.699-1.66-0.957-2.295-1.781
		c-1.963-2.57-3.723-10.992-2.293-14.531c0.65-1.613,2.621-2.037,2.549-3.574c1.877-0.416,4.762,0.365,6.377,0.26
		c0.635-3.279,0.445-6.693-0.258-9.689C410.104,509.343,405.205,512.774,400.865,516.759z M407.492,519.819
		c0.307,3.539,1.141,7.785,4.08,9.434c2.289-2.074,3.025-5.273,3.312-8.16C412.727,518.983,409.361,515.452,407.492,519.819z
		 M182.389,527.216c0.75,1.018,0.008,1.33,0,2.803c1.543,3.205,5.453,8.84,9.43,5.607c0.635-2.693,1.875-6.361,0.766-9.688
		c-0.531-1.582-1.805-2.432-2.037-3.826c-1.512-0.275-1.932-1.641-3.318-2.039C184.975,521.812,183.256,524.091,182.389,527.216z"/>
	<path d="M383.783,199.878c-0.547,1.59-0.148,2.557-0.51,4.332c-1.996,1.742-4.914,2.562-7.133,4.08
		c-5.938,0.908-11.639,3.15-17.594,4.334c-3.188,0.633-6.615,0.602-9.943,1.271c-3.348,0.678-6.865,1.451-10.199,1.791
		c-4.605,0.459-10.633,0.654-16.059,0.504c-11.164-0.297-23.316-1.164-33.395-1.783c-8.445-0.518-16.08-3.467-23.963-4.592
		c-6.119-1.98-10.406-4.334-16.318-6.623c-0.934-1.604-3.807-1.428-3.566-3.822c0.301-3.014,8.289-4.135,12.492-4.848
		c9.805-1.648,17.574-2.395,27.021-2.803c13.332-0.572,23.658,0.041,33.908-0.506c1.104-0.059,1.832-0.58,2.293-0.258
		c13.746,0.375,25.736,0.668,37.98,1.781c2.736,0.256,5.174,1.295,7.906,1.785c4.52,0.818,8.387,1.195,12.488,2.553
		C381.543,197.851,382.344,198.05,383.783,199.878z M372.566,200.39c-0.691-1.566-6.584-1.963-9.941-2.551
		c-11.229-1.961-23.674-2.52-32.887-2.805c-6.084-0.188-13.594,0.166-19.119,0.256c-8.881,0.143-17.387,1.285-26.002,1.529
		c-2.393,0.068-4.977-0.293-7.393,0c-7.137,0.875-13.883,3.203-19.375,3.82c3.193,2.58,7.398,4.102,11.984,5.359
		c4.316,1.184,9.346,1.852,14.275,3.059c6.803,1.668,13.104,1.855,20.646,2.293c1.658,0.098,3.27,0.699,4.846,0.768
		c5.045,0.213,11.143-0.119,15.549,0.258c3.359,0.283,7.414-0.732,11.219-1.023c4.102-0.307,8.131-1.182,11.725-1.018
		c0.463-0.918,1.248-0.842,2.041-1.02c4.855-1.082,9.414-1.699,14.527-2.803c0.496-0.527,1.133-0.908,1.791-1.275
		c0.764,0,1.525,0,2.291,0C370.143,204.058,373.43,202.333,372.566,200.39z"/>
	<path d="M307.049,342.386c0.09,0.154,0.727,0.363,0.766,0.51c1.717,6.469-0.479,11.453,1.787,17.588
		c1.805,2.453,4.986,4.287,5.861,6.887c2.818,3.484,7.156,4.889,10.963,7.135c2.193,1.295,3.639,3.811,6.377,4.08
		c5.107,4.066,11.709,6.648,16.57,10.963c1.76,0.193,2.457,1.451,4.078,1.785c-1.711,2.125-4.984-0.268-7.137-1.275
		c-3.23-1.51-6.344-3.508-8.67-5.609c-4.422-2.287-9.5-3.922-13.512-6.625c-6.602-2.275-13.611-6.242-17.842-11.729
		c-11.475,7.697-23.309,13.535-37.223,18.865c-0.896-0.051-1.82-0.551-2.297,0.256c0.398-2.41,5.527-2.293,6.629-4.846
		c6.082-2.758,11.814-5.863,16.826-9.684c5.348-1.621,7.861-6.078,11.98-8.922C304.998,356.862,306.068,349.733,307.049,342.386z"/>
	
		<linearGradient id="SVGID_40_" gradientUnits="userSpaceOnUse" x1="308.0225" y1="509.1152" x2="308.0225" y2="268.1387" gradientTransform="matrix(1 0 0 -1 0 794)">
		<stop  offset="0.0038" style="stop-color:#CCC7C0"/>
		<stop  offset="1" style="stop-color:#8A8380"/>
	</linearGradient>
	<path fill="url(#SVGID_40_)" d="M304.502,291.399c-1.391,0.67-2.051-0.246-3.57,0.768c-9.994-2.322-18.898-7.17-28.811-8.41
		c-2.248-0.828-5.475-3.059-7.9-2.043c11.816,5.354,26.234,8.102,36.199,15.297c1.016-0.041,2.072,0.203,2.805,0.768
		c1.336,1.031,2.91,4.969,3.062,7.646c0.031,0.58-0.488,1.211-0.512,1.785c-0.039,0.832,0.742,1.625,0.762,2.293
		c0.092,2.654-0.574,5.914-1.016,7.902c1.406,3.883-1.342,10.41-1.785,14.023c-0.562,0.289-0.848,0.852-1.529,1.02
		c0.08,0.598,0.404,0.955,0.256,1.783c-2.08,2.086-3.168,5.158-5.1,7.393c-4.088,3.037-8.979,5.057-15.041,7.648
		c-5.605,2.396-10.342,4.219-16.824,6.375c-1.492,0.494-2.947,1.408-4.332,1.785c-2.293,0.621-4.891,0.641-7.391,1.271
		c-7.395,1.875-17.008,3.074-24.219,5.869c0.16,1.611,6.363,0.758,8.156,0.254c0.938-0.262,1.709-0.738,2.293-1.02
		c10.531-1.086,19.355-3.08,28.555-6.373c6.004-0.877,11.029-2.736,15.805-4.842c7.672-1.506,13.918-4.436,18.609-8.926
		c1.844-2.91,3.576-5.939,6.115-8.156c2.123,5.102,6.254,8.189,9.18,12.486c3.605,1.408,6.613,3.416,9.178,5.869
		c2.953,0.277,4.594,1.861,6.627,3.059c2.865,0.451,5.369,1.254,7.135,2.803c0.615,0.105-0.141-1.16,0.771-0.764
		c1.756,0.777,4.191,0.996,6.371,1.527c1.539,0.379,3.016,1.711,4.078,1.021c-0.762-1.461-3.436-1.938-5.1-2.553
		c-5.467-2.01-11.082-5.451-16.568-7.391c-6.211-4.967-15.43-10.355-16.824-20.652c-0.217-1.572,0.033-3.078-0.256-4.844
		c-1.129-6.883-3.152-16.031-0.766-23.195c1.076-0.795,1.773-1.965,2.291-3.314c4.096-3.979,10.527-6.486,16.572-8.926
		c2.625-1.059,5.812-2.85,8.918-3.822c1.547-0.484,3.295-0.465,4.848-1.02c3.094-1.102,5.695-2.953,9.174-2.805
		c0.732-0.459,1.424-0.957,2.045-1.525c6.578-0.578,13.412-3.699,20.646-5.098c2.564-0.498,5.369-0.01,7.648-1.533
		c-4.637-0.385-9.969,1.814-15.555,2.805c-3.811,0.678-8.148,0.498-10.959,2.295c-1.008-0.227-1.559,0.055-2.039-0.258
		c-8.234,2.541-15.891,3.4-23.195,7.139c-8.883,1.66-14.402,6.674-22.947,8.668c-0.666-0.605-0.775-1.775-1.787-2.037
		c1.586,0.039,1.125-3.523,1.023-5.863c-0.264-6.078,0.543-12.301,2.549-16.314c4.674-2.809,6.854-8.102,12.49-9.947
		c3.008-2.67,6.793-3.51,10.707-4.588c7.621-2.094,14.93-4.977,23.453-6.883c4.605-1.025,8.916-2.492,13-3.312
		c10.938-2.205,22.383-4.023,35.186-6.373c4.322-0.795,8.484-2.686,12.742-3.57c2.518-0.521,5.344-0.232,7.656-1.787
		c3.889-0.469,7.799,0.049,11.209-1.018c3.254,1.271,6.938,1.096,11.221,2.039c3.303,8.135,5.318,20.086,6.627,29.57
		c0.246,1.768,1.09,3.641,1.273,5.355c0.354,3.205,0.307,6.576,0.764,9.945c0.363,2.639,0.672,5.568,0.771,7.9
		c0.672,16.453-0.512,36.127-2.551,50.221c-0.281,1.928-0.701,5.309-1.023,5.865c-1.523,2.639-7.266,2.65-8.414,5.354
		c-3.615,0.631-5.777,3.479-8.918,5.104c-4.035,2.084-9.145,2.402-13.256,5.35c-0.508,0-1.018,0-1.531,0
		c-11.174,5.83-26.18,4.891-38.748,4.334c-2.365-0.102-4.688,0.395-7.139,0.256c-3.494-0.195-7.193-1.34-9.941,0.26
		c12.76,2.215,31.094,2.578,45.377,1.779c1.068-0.725,3.34-1.139,4.59-0.254c1.689-1.623,5.477-1.15,7.133-2.803
		c0.494,0.1,0.205,0.986,1.021,0.766c9.822-2.082,18.729-5.908,27.787-9.432c-2.277,8.949-3.215,17.746-7.391,26
		c-1.512,6.719-3.717,11.531-7.395,16.314c0,0.51,0,1.023,0,1.531c-3.25,3.637-7.607,6.16-11.729,8.92
		c-2.445,0.693-4.824,1.465-6.881,2.553c-0.475-0.203-0.936-0.43-1.531-0.512c-15.953,1.711-32.098-4.385-47.926-9.176
		c-1.336-1.615-4.281-2.777-6.117-3.061c0.336,1.982,2.922,2.857,4.84,3.82c2.967,1.49,5.887,2.869,9.438,4.082
		c0.074,1.193,0.543,2.006,0.764,3.061c-0.627,3.391-1.688,7.748-4.08,9.688c-6.271,5.086-23.586,1.93-30.844,3.568
		c9.711,2.439,19.805,3.445,28.295,7.396c0.885,1.184,1.402,1.836,2.293,2.547c1.23,6.627-1.621,12.465-3.061,18.102
		c-1.771,2.703-2.727,5.387-4.332,7.904c-1.82,2.852-3.336,5.926-5.354,8.406c-5.977,7.35-20.314,7.977-30.338,7.654
		c-3.693-0.125-7.992,0.676-10.707-1.787c-4.125,0.215-5.947-1.871-8.922-2.807c-2.631-9.564-1.779-20.371-2.805-29.057
		c-2.246,8.682-0.543,16.654-2.805,25.494c-5.65,6.926-17.082,6.977-26.512,9.176c7.578,1.074,15.119-0.262,22.438,1.781
		c-0.004,1.719,1.732,1.793,2.551,3.061c0.4,0.631,0.518,2.369,1.018,3.568c0.814,1.965,0.756,3.219,1.018,6.627
		c0.297,3.826,0.547,7.451,0.768,11.221c1.248-0.842,0.373-2.715,0.51-4.082c0.309-3.084,1.053-6.035,1.018-9.176
		c-0.021-2.195-0.822-4.67,0.256-7.396c1.109-1.133,2.035-1.875,2.299-3.311c8.027-1.812,18.383-0.547,26.764,1.02
		c3.023,0.564,7.379,2.057,10.199,3.316c2.613,1.162,4.213,4.17,6.371,5.859c2.938,16.695-3.906,34.242-9.943,48.182
		c-9.678,4.428-18.445,9.768-30.078,12.238c-1.041-0.49-2.041-1.016-3.568-1.018c-0.262-2.588-3.258-3.441-2.043-6.629
		c-0.031-0.992-1.25-0.789-1.273-1.785c1.072-9.031,0.322-15.988,0.766-24.73c-1.158,0.355-1.395,1.906-1.527,2.807
		c-0.82,5.445-1.039,11.766-1.279,17.078c-2.635,3.994-2.041,11.211-5.096,14.791c-1.799,0.398-3.012,0.346-4.59,1.273
		c-2.912-0.889-5.908,0.305-8.668-0.766c-3.002-1.168-6.887-1.289-11.217-2.553c-2.33-0.676-4.533-1.855-7.137-2.545
		c-2.676-5.592-5.615-10.832-8.67-17.086c0.098-0.668,0.818-0.707,0.512-1.781c-2.938-3.512-4.617-9.459-6.375-14.023
		c-0.146-1,0.223-1.48,0.512-2.037c-1.127-1.342-0.887-4.043-2.293-5.098c0.006-5.041-1.27-11.475,1.527-16.318
		c2.387-0.934,3.004-3.77,5.098-5.098c0.674-0.426,1.586-0.342,2.295-0.762c1.297-0.781,2.291-2.664,3.822-3.316
		c0.676-0.287,1.83-0.043,2.805-0.256c2.289-0.5,4.291-1.354,7.135-2.037c-0.609-0.508,0.43-1.215-0.256-1.783
		c-6.975-1.641-13.555-0.533-19.119-3.574c-0.275-0.572-0.422-1.277-0.766-1.785c-5.184-1.27-7-5.918-10.193-9.18
		c-1.402-5.938-5.418-15.373-2.805-22.941c0.203-0.947-0.311-1.867,0-2.803c0.219-0.654,1.33-0.777,1.785-1.787
		c0.258-0.578-0.268-1.613,0-2.037c0.658-1.057,2.516-1.602,3.059-2.553c1.045-0.248,1.633,0.631,2.295,0
		c3.365-3.262,10.5-2.754,15.043-4.842c-6.15-1.213-14.125-1.785-18.865-3.57c-0.807-0.807-1.412-1.816-3.314-1.531
		c-1.729-2.602-3.521-5.148-4.336-8.664c1.221-2.93,0.135-6.998,1.279-10.455c7.652-3.059,14.221-7.195,21.668-10.455
		c0.203-0.885-0.377-0.979-0.258-1.785c-11.096,4.152-21.732,7.281-33.906,10.453c-3.148,1.633-6.693,1.891-10.451,2.803
		c-5.773,1.406-12.627,3.621-18.865,4.334c-2.797,0.322-5.873,0.959-8.41,0.77c-2.117-0.16-3.84-1.473-6.117-1.021
		c-0.988-1.049-2.537-0.781-3.824-1.277c-2.238-0.854-3.957-2.838-5.867-3.059c-3.814-3.645-5.43-10.014-7.645-16.57
		c-1.307-3.854-2.887-7.688-3.57-11.221c-0.34-1.734,0.029-3.598-0.258-5.35c-0.779-4.768-2.436-9.359-2.805-13.766
		c2.967,0.859,7.377,2.477,10.193,4.33c6.793,1.861,13.648,4.141,20.908,5.355c6.254,1.045,12.861,1.66,18.867,3.062
		c1.094,0.158,0.797-1.074,1.783-1.023c5.234,0.691,9.803,1.453,14.785,1.531c0.51-2.947-2.373-0.961-3.311-2.293
		c-12.928-1.807-26.092-2.303-35.184-7.652c-4.812,0.146-7.732-2.887-11.473-4.332c-2.277-0.879-4.262-0.963-5.863-2.041
		c-0.574-0.385-0.674-1.176-1.275-1.529c-3.912-2.289-7.967-3.826-11.215-6.625c-0.611-5.406-1.123-10.734-1.531-17.082
		c-0.229-0.822,0.832-0.355,1.018-0.766c-0.541-5.402,0.225-10.883,1.787-15.801c-0.885-2.039,0.479-4.98-0.254-6.883
		c2.516-5.236,2.189-14.332,5.352-19.633c-0.416-3.285,1.504-8.598,2.803-12.748c0.574-1.822,1.102-3.631,1.787-5.355
		c3.693-9.322,9.291-18.439,14.787-25.492c0.623-0.143,0.547-0.986,1.527-0.768c0.363-0.906,0.957-1.594,1.277-2.547
		c4.857-4.223,11.52-2.348,18.354-1.021c4.455,0.865,9.133,2.451,13.514,3.061c0.559-0.047,0.811,0.207,0.762,0.766
		c5.777,1.326,12.279,1.404,17.59,3.316c0.609,0.219,1.182,0.854,1.785,1.016c2.541,0.689,5.277,0.803,7.652,1.531
		c11.488,3.523,22.164,7.355,33.65,10.453c1.479,1.582,4.955,1.16,6.115,3.059c1.555,0.656,3.178,1.242,5.102,1.529
		c0.418,1.197,1.807,1.42,2.297,2.551c5.543,1.934,8.494,6.457,11.723,10.707C305.061,277.147,306.885,285.612,304.502,291.399z
		 M222.158,271.515c-4.703-0.758-10.48-0.564-14.789-1.021c-1.098-0.113-2.594-1.201-3.059,0.512
		c18.898,1.541,35.25,5.668,53.281,9.178c0.48,0.645,2.104,1.152,3.059,0.514c-0.182-0.781,0.26-0.932,0.256-1.527
		C249.604,277.196,234.994,273.583,222.158,271.515z M395,272.28c-0.193,1.078-2.244,0.307-1.787,2.039
		c3.135-0.543,7.633-1.424,11.729-2.299C401.699,271.181,398.359,272.392,395,272.28z M302.205,361.763
		c-4.119,2.846-6.633,7.299-11.98,8.92c-5.016,3.822-10.746,6.928-16.826,9.684c-1.102,2.555-6.23,2.436-6.629,4.848
		c0.477-0.805,1.4-0.309,2.295-0.256c13.914-5.33,25.75-11.168,37.225-18.865c4.229,5.484,11.24,9.453,17.842,11.729
		c4.012,2.701,9.092,4.336,13.512,6.625c2.328,2.102,5.438,4.1,8.668,5.607c2.154,1.008,5.434,3.398,7.139,1.277
		c-1.619-0.336-2.318-1.592-4.08-1.785c-4.859-4.316-11.461-6.896-16.568-10.963c-2.74-0.268-4.182-2.785-6.377-4.08
		c-3.805-2.248-8.145-3.652-10.963-7.135c-0.877-2.6-4.057-4.432-5.861-6.887c-2.266-6.137-0.07-11.119-1.787-17.588
		c-0.039-0.148-0.676-0.355-0.768-0.512C306.068,349.733,304.998,356.862,302.205,361.763z M310.363,379.862
		c0.887-1.965,0.879-4.75-0.764-5.867c-0.172,0-0.344,0-0.512,0C308.43,376.087,306.543,379.718,310.363,379.862z M307.303,400.001
		c-0.035,1.771,0.764,3.764,0.51,5.605c-0.146,1.072-0.852,2.197-1.021,3.314c-0.43,2.863-0.105,5.883-1.016,7.904
		c-0.508,1.117-2.23,2.004-2.293,3.572c-6.004,3.148-16.822,0.67-22.947,1.527c0.236,1.561,1.514,0.512,3.061,0.762
		c-0.295,0.803,0.398,0.621,0.512,1.018c5.906,0.781,16.266-1.326,20.137,3.318c0.598,0,1.193,0,1.783,0
		c3.619,2.549-0.025,8.227,4.59,9.178c-0.123-1.869,1.57-2.689,0.508-4.08c2.365-1.545,0.641-7.18,5.869-5.863
		c0.559-0.371-0.15-2.018,0.766-2.039c6.037-0.305,11.512,0.119,17.078-0.514c-7.404-2.225-19.348-0.469-23.453-7.133
		c-0.801-2.979-0.352-5.836-1.02-8.67c-0.064-0.746,0.572-0.781,0.508-1.525c-1.156-1.133-1.018-3.529-0.508-5.1
		c-1.508-3.533-0.58-9.506-0.258-13.26c-0.967-0.475-0.727-2.156-1.527-2.803C308.646,390.007,307.402,394.942,307.303,400.001z
		 M295.83,543.526c0.492,0.498,1.562,0.266,1.277-0.764C296.369,542.448,295.945,542.636,295.83,543.526z"/>
	<path d="M308.576,385.214c0.801,0.646,0.564,2.328,1.531,2.803c-0.324,3.754-1.252,9.727,0.256,13.26
		c-0.51,1.57-0.648,3.967,0.508,5.1c0.066,0.744-0.57,0.779-0.508,1.525c0.672,2.834,0.217,5.688,1.018,8.67
		c4.107,6.664,16.051,4.912,23.455,7.133c-5.566,0.633-11.041,0.209-17.08,0.514c-0.912,0.021-0.205,1.668-0.764,2.039
		c-5.227-1.316-3.502,4.318-5.869,5.863c1.062,1.391-0.633,2.211-0.506,4.08c-4.619-0.951-0.975-6.629-4.59-9.178
		c-0.592,0-1.189,0-1.787,0c-3.869-4.645-14.227-2.539-20.137-3.318c-0.111-0.396-0.805-0.215-0.51-1.018
		c-1.545-0.25-2.824,0.799-3.061-0.762c6.127-0.859,16.941,1.617,22.945-1.527c0.064-1.568,1.787-2.453,2.295-3.572
		c0.908-2.025,0.586-5.045,1.016-7.904c0.172-1.117,0.877-2.242,1.021-3.314c0.254-1.842-0.543-3.834-0.512-5.605
		C307.402,394.942,308.646,390.007,308.576,385.214z"/>
	
		<linearGradient id="SVGID_41_" gradientUnits="userSpaceOnUse" x1="157.21" y1="459.2832" x2="260.123" y2="459.2832" gradientTransform="matrix(1 0 0 -1 0 794)">
		<stop  offset="0.0038" style="stop-color:#CCC7C0"/>
		<stop  offset="1" style="stop-color:#221C1D"/>
	</linearGradient>
	<path fill="url(#SVGID_41_)" d="M159.146,306.19c0,0-3.605,18.92-0.977,35.176c20.248,16.742,57.613,29.752,101.953,16.285
		C227.637,360.067,177.357,348.546,159.146,306.19z"/>
	
		<linearGradient id="SVGID_42_" gradientUnits="userSpaceOnUse" x1="352.4277" y1="458.1621" x2="459.6992" y2="458.1621" gradientTransform="matrix(1 0 0 -1 0 794)">
		<stop  offset="0.0038" style="stop-color:#CCC7C0"/>
		<stop  offset="1" style="stop-color:#221C1D"/>
	</linearGradient>
	<path fill="url(#SVGID_42_)" d="M459.432,304.933c0,0,1.188,22.184-1.443,38.438c-20.246,16.742-61.219,31.607-105.561,18.137
		C384.912,363.921,441.221,347.288,459.432,304.933z"/>
	<path fill="#8A8380" d="M317.779,310.7c6.33-8.842,19.771-22.061,46.803-30.822c0,0-48.611,9.668-51.471,20.949
		c-7.309,28.889,6.615,41.561,6.615,41.561C312.854,327.366,313.848,316.185,317.779,310.7z"/>
</g>
</svg>
