<?xml version="1.0" encoding="UTF-8" standalone="no"?>
<!-- Created with Inkscape (http://www.inkscape.org/) -->

<svg
   xmlns:dc="http://purl.org/dc/elements/1.1/"
   xmlns:cc="http://creativecommons.org/ns#"
   xmlns:rdf="http://www.w3.org/1999/02/22-rdf-syntax-ns#"
   xmlns:svg="http://www.w3.org/2000/svg"
   xmlns="http://www.w3.org/2000/svg"
   xmlns:sodipodi="http://sodipodi.sourceforge.net/DTD/sodipodi-0.dtd"
   xmlns:inkscape="http://www.inkscape.org/namespaces/inkscape"
   width="744.09448819"
   height="1052.3622047"
   id="svg12217"
   version="1.1"
   inkscape:version="0.48+devel r9772"
   sodipodi:docname="New document 110">
  <defs
     id="defs12219" />
  <sodipodi:namedview
     id="base"
     pagecolor="#ffffff"
     bordercolor="#666666"
     borderopacity="1.0"
     inkscape:pageopacity="0.0"
     inkscape:pageshadow="2"
     inkscape:zoom="0.66136926"
     inkscape:cx="182.28941"
     inkscape:cy="526.18109"
     inkscape:document-units="px"
     inkscape:current-layer="layer1"
     showgrid="false"
     inkscape:window-width="1440"
     inkscape:window-height="851"
     inkscape:window-x="0"
     inkscape:window-y="1"
     inkscape:window-maximized="1" />
  <metadata
     id="metadata12222">
    <rdf:RDF>
      <cc:Work
         rdf:about="">
        <dc:format>image/svg+xml</dc:format>
        <dc:type
           rdf:resource="http://purl.org/dc/dcmitype/StillImage" />
        <dc:title></dc:title>
      </cc:Work>
    </rdf:RDF>
  </metadata>
  <g
     inkscape:label="Layer 1"
     inkscape:groupmode="layer"
     id="layer1">
    <g
       id="g12309"
       style="fill:#800000"
       transform="matrix(2.7581651,0,0,2.7581651,-572.85999,-948.87388)">
      <path
         id="path12307"
         d="m 340.93814,654.54574 c 1.03922,-1.7875 4.79617,-8.30894 8.34877,-14.49209 l 6.45929,-11.24209 58.25,-0.008 c 32.0375,-0.004 58.25,0.21565 58.25,0.48889 0,0.27323 -3.64653,6.79823 -8.10339,14.5 l -8.10339,14.00329 -58.49539,0 -58.49538,0 1.88949,-3.25 z"
         style="fill:#800000"
         inkscape:connector-curvature="0" />
      <path
         id="path12305"
         d="m 331.93084,653.06205 c -5.12924,-8.66618 -35.90186,-62.6688 -36.29558,-63.69481 -0.30239,-0.78802 3.16531,-7.84173 7.706,-15.67493 7.62942,-13.16162 8.36194,-14.09629 9.65486,-12.31937 0.76949,1.05754 9.39872,15.82061 19.17608,32.80681 l 17.77701,30.88402 -5.50387,9.61598 c -3.02713,5.2888 -6.59641,11.52424 -7.93173,13.85655 -2.58543,4.51579 -3.84969,5.76433 -4.58277,4.52575 z"
         style="fill:#800000"
         inkscape:connector-curvature="0" />
      <path
         id="path12303"
         d="m 235.2462,621.25512 c 0,-0.29734 8.24588,-14.80984 18.32417,-32.25 10.07829,-17.44016 23.16056,-40.12818 29.0717,-50.41784 l 10.74753,-18.70845 37.4283,-0.0588 c 20.58557,-0.0323 37.4283,0.2216 37.4283,0.56431 0,0.34272 -2.09082,4.28799 -4.64626,8.76727 -2.55544,4.47928 -6.23441,10.94808 -8.17548,14.37513 l -3.52922,6.23098 -21.40635,0.26902 -21.40635,0.269 -10.89508,18.5 c -5.9923,10.175 -10.90547,18.90964 -10.91817,19.41032 -0.0127,0.50067 3.77549,7.47567 8.41819,15.5 4.64271,8.02432 8.74085,15.37718 9.10699,16.33968 0.62617,1.64608 -1.41912,1.75 -34.44128,1.75 -19.30885,0 -35.10699,-0.24328 -35.10699,-0.54062 z"
         style="fill:#800000"
         inkscape:connector-curvature="0" />
      <path
         id="path12301"
         d="m 342.47168,598.53499 c -7.30099,-12.78159 -15.73274,-27.41235 -18.73722,-32.51281 l -5.4627,-9.27356 17.08192,0.27356 17.08192,0.27356 8.1553,14.07961 c 4.48542,7.74378 9.15262,15.73128 10.37157,17.75 l 2.21628,3.67039 22.46281,0 22.46282,0 6.90919,-11.75 c 3.80005,-6.4625 7.96482,-13.6625 9.25505,-16 1.29022,-2.3375 2.62675,-4.25 2.97005,-4.25 0.3433,0 4.92648,7.5375 10.18485,16.75 5.25837,9.2125 12.99462,22.67514 17.19168,29.91698 4.19705,7.24184 7.631,13.42934 7.631,13.75 0,0.32066 -26.2125,0.57818 -58.25,0.57227 l -58.25,-0.0108 -13.27452,-23.23925 z"
         style="fill:#800000"
         inkscape:connector-curvature="0" />
      <path
         id="path12299"
         d="m 221.32465,605.85934 c -3.88486,-6.56502 -7.57332,-13.05562 -8.19659,-14.42354 -1.03861,-2.2795 1.10157,-6.35459 25.63619,-48.8136 14.72317,-25.47955 27.8844,-48.25929 29.24717,-50.62163 1.36277,-2.36235 2.68515,-4.0878 2.93861,-3.83433 0.74033,0.74032 16.29617,27.78456 16.29617,28.3313 0,0.2731 -9.49835,16.98942 -21.10744,37.14737 -30.06773,52.20942 -37.03221,64.15083 -37.41407,64.15083 -0.18517,0 -3.51519,-5.37138 -7.40004,-11.9364 z"
         style="fill:#800000"
         inkscape:connector-curvature="0" />
      <path
         id="path12297"
         d="m 381.2462,585.02295 c 0,-0.45163 6.4147,-11.82501 14.25489,-25.27418 7.8402,-13.44916 16.24545,-27.94053 18.67834,-32.20303 l 4.42345,-7.75 16.84198,0 16.84199,0 -1.98463,3.75 c -1.09154,2.0625 -9.53967,16.8 -18.77361,32.75 l -16.789,29 -16.7467,0.27418 c -9.21069,0.1508 -16.74671,-0.0953 -16.74671,-0.54697 z"
         style="fill:#800000"
         inkscape:connector-curvature="0" />
      <path
         id="path12295"
         d="m 373.15459,579.6434 c -2.85967,-5.30082 -3.69284,-6.75276 -9.1804,-15.99854 -3.15039,-5.30799 -5.72799,-10.04565 -5.72799,-10.52815 0,-0.48249 4.5,-8.68218 10,-18.22154 5.5,-9.53935 10,-17.69451 10,-18.12258 0,-0.82998 -20.67866,-37.00027 -21.82218,-38.1705 -0.3728,-0.3815 -9.11532,-0.79596 -19.42782,-0.92102 -10.3125,-0.12506 -18.75,-0.50029 -18.75,-0.83385 0,-0.33356 0.61384,-1.4941 1.3641,-2.57897 0.75025,-1.08488 6.91859,-11.64751 13.70741,-23.47251 6.78882,-11.825 14.22171,-24.77064 16.51754,-28.76809 l 4.17423,-7.26809 29.19029,50.60945 c 16.35377,28.3538 28.94876,51.23887 28.64106,52.04073 -0.6141,1.6003 -34.17888,59.83423 -36.15833,62.73366 -1.20157,1.76001 -1.32148,1.73629 -2.52791,-0.5 z"
         style="fill:#800000"
         inkscape:connector-curvature="0" />
      <path
         id="path12293"
         d="m 289.14313,505.54574 c -2.30521,-3.9875 -5.92506,-10.20118 -8.04411,-13.80817 -2.11905,-3.60699 -3.85282,-6.86949 -3.85282,-7.25 0,-0.38051 16.58026,-0.69183 36.84501,-0.69183 33.85861,0 36.96527,0.14184 38.32871,1.75 1.11289,1.31264 12.2536,20.30351 15.54583,26.5 0.21917,0.4125 -16.48322,0.75 -37.11642,0.75 l -37.51491,0 -4.19129,-7.25 z"
         style="fill:#800000"
         inkscape:connector-curvature="0" />
      <path
         id="path12291"
         d="m 409.94048,498.04574 c -4.65729,-8.1125 -17.72037,-30.8375 -29.02907,-50.5 l -20.56126,-35.75 16.73097,0 16.73096,0 11.6277,20.25 c 6.39524,11.1375 19.14646,33.29024 28.33606,49.22831 9.18959,15.93807 16.92795,29.55057 17.19634,30.25 0.38271,0.99731 -3.07768,1.27169 -16.03795,1.27169 l -16.52594,0 -8.46781,-14.75 z"
         style="fill:#800000"
         inkscape:connector-curvature="0" />
      <path
         id="path12287"
         d="m 408.05307,488.26928 c -0.30789,-0.30789 -0.86705,0.24711 -1.24258,1.23333 -0.54268,1.4252 -0.42782,1.54006 0.5598,0.5598 0.68342,-0.67834 0.99067,-1.48524 0.68278,-1.79313 z"
         style="fill:#800000"
         inkscape:connector-curvature="0" />
    </g>
  </g>
</svg>
