<?xml version="1.0" encoding="UTF-8" standalone="no"?>
<!-- Created with Inkscape (http://www.inkscape.org/) -->

<svg
   xmlns:dc="http://purl.org/dc/elements/1.1/"
   xmlns:cc="http://creativecommons.org/ns#"
   xmlns:rdf="http://www.w3.org/1999/02/22-rdf-syntax-ns#"
   xmlns:svg="http://www.w3.org/2000/svg"
   xmlns="http://www.w3.org/2000/svg"
   xmlns:sodipodi="http://sodipodi.sourceforge.net/DTD/sodipodi-0.dtd"
   xmlns:inkscape="http://www.inkscape.org/namespaces/inkscape"
   width="282.22223mm"
   height="246.04019mm"
   viewBox="0 0 1000 871.79595"
   id="svg5336"
   version="1.1"
   inkscape:version="0.91 r13725"
   sodipodi:docname="Polearm2.svg">
  <defs
     id="defs5338" />
  <sodipodi:namedview
     id="base"
     pagecolor="#ffffff"
     bordercolor="#666666"
     borderopacity="1.0"
     inkscape:pageopacity="0.0"
     inkscape:pageshadow="2"
     inkscape:zoom="0.76852846"
     inkscape:cx="500.00001"
     inkscape:cy="435.89798"
     inkscape:document-units="px"
     inkscape:current-layer="layer1"
     showgrid="false"
     fit-margin-top="0"
     fit-margin-left="0"
     fit-margin-right="0"
     fit-margin-bottom="0"
     inkscape:window-width="1600"
     inkscape:window-height="837"
     inkscape:window-x="-8"
     inkscape:window-y="-8"
     inkscape:window-maximized="1" />
  <metadata
     id="metadata5341">
    <rdf:RDF>
      <cc:Work
         rdf:about="">
        <dc:format>image/svg+xml</dc:format>
        <dc:type
           rdf:resource="http://purl.org/dc/dcmitype/StillImage" />
        <dc:title></dc:title>
      </cc:Work>
    </rdf:RDF>
  </metadata>
  <g
     inkscape:label="Layer 1"
     inkscape:groupmode="layer"
     id="layer1"
     transform="translate(1659.696,1067.3179)">
    <g
       transform="matrix(16.965768,0,0,-16.965768,-6079.0968,6166.1448)"
       id="g5211">
      <path
         inkscape:connector-curvature="0"
         id="path3392"
         style="fill:#525638;fill-opacity:1;fill-rule:nonzero;stroke:#000000;stroke-width:0.125;stroke-linecap:butt;stroke-linejoin:miter;stroke-miterlimit:4;stroke-dasharray:none;stroke-opacity:1"
         d="m 314.99707,423.1333 -52.34961,-45.66553 0.60059,-0.68994 52.39209,45.60791 -0.64307,0.74756 z" />
      <path
         inkscape:connector-curvature="0"
         id="path3402"
         style="fill:#f2f2f2;fill-opacity:1;fill-rule:nonzero;stroke:#000000;stroke-width:0.125;stroke-linecap:butt;stroke-linejoin:miter;stroke-miterlimit:4;stroke-dasharray:none;stroke-opacity:1"
         d="m 262.64746,377.46777 -0.13672,-0.44433 -0.37597,0.0478 -1.5962,-2.04639 2.24659,1.29932 0.004,0.37891 0.45899,0.0747 -0.60059,0.68994 z" />
      <path
         inkscape:connector-curvature="0"
         id="path3406"
         style="fill:#f2f2f2;fill-opacity:1;fill-rule:nonzero;stroke:#000000;stroke-width:0.125;stroke-linecap:butt;stroke-linejoin:miter;stroke-miterlimit:4;stroke-dasharray:none;stroke-opacity:1"
         d="m 315.64014,422.38574 c 0.59521,0.49268 1.93017,1.05957 2.41259,1.13916 0.16504,0.79492 0.82569,2.06153 1.32764,2.77588 -0.77588,-0.3999 -2.12109,-0.88183 -2.93115,-0.93701 -0.14453,-0.46729 -0.88916,-1.71973 -1.45215,-2.23047 l 0.64307,-0.74756 z" />
      <path
         inkscape:connector-curvature="0"
         id="path3408"
         style="fill:#f2f2f2;fill-opacity:1;fill-rule:nonzero;stroke:#000000;stroke-width:0.125;stroke-linecap:butt;stroke-linejoin:miter;stroke-miterlimit:4;stroke-dasharray:none;stroke-opacity:1"
         d="m 315.04932,422.54053 c 0.60839,-0.71289 1.70263,-0.69873 2.25976,0.23926 -0.46972,-0.33643 -1.20312,-0.40528 -1.73828,0.21435 -0.53516,0.62012 -0.37109,1.33252 0.0264,1.75147 -1.00537,-0.42286 -1.15576,-1.49219 -0.54785,-2.20508 z" />
      <path
         inkscape:connector-curvature="0"
         id="path3502"
         style="fill:#ed1248;fill-opacity:1;fill-rule:nonzero;stroke:#000000;stroke-width:0.125;stroke-linecap:butt;stroke-linejoin:miter;stroke-miterlimit:4;stroke-dasharray:none;stroke-opacity:1"
         d="m 314.39648,422.06787 c -0.18164,-0.0659 -0.8833,0.25049 -1.04882,0.70508 -0.16553,0.45459 0.0132,0.93701 0.39941,1.07812 0.38623,0.14063 0.8335,-0.11425 0.99902,-0.56884 0.16553,-0.45459 -0.16796,-1.14795 -0.34961,-1.21436 l -0.16357,0.44873 c 0.0894,0.0327 0.24121,0.4082 0.15967,0.63184 -0.0815,0.22363 -0.30176,0.34863 -0.4917,0.27978 -0.18994,-0.0693 -0.27783,-0.30664 -0.19629,-0.53027 0.0815,-0.22363 0.43896,-0.41406 0.52832,-0.38135 l 0.16357,-0.44873 z" />
      <path
         inkscape:connector-curvature="0"
         id="path3504"
         style="fill:#ed1248;fill-opacity:1;fill-rule:nonzero;stroke:#000000;stroke-width:0.125;stroke-linecap:butt;stroke-linejoin:miter;stroke-miterlimit:4;stroke-dasharray:none;stroke-opacity:1"
         d="m 313.34863,413.55859 c 0.2627,-0.0283 0.33106,0.29688 0.39453,0.88868 l 0.76954,7.13183 c 0.0635,0.5918 0.0664,0.92383 -0.19678,0.95215 -0.2627,0.0283 -0.33106,-0.29687 -0.39502,-0.88818 l -0.76904,-7.13233 c -0.064,-0.59131 -0.0664,-0.92383 0.19677,-0.95215 z" />
      <path
         inkscape:connector-curvature="0"
         id="path3506"
         style="fill:#ed1248;fill-opacity:1;fill-rule:nonzero;stroke:#000000;stroke-width:0.125;stroke-linecap:butt;stroke-linejoin:miter;stroke-miterlimit:4;stroke-dasharray:none;stroke-opacity:1"
         d="m 313.69824,411.98047 c 0.0742,0.69043 -0.043,1.54492 -0.34961,1.57812 -0.30713,0.0332 -0.60449,-0.77685 -0.67871,-1.46728 -0.0303,-0.2832 0.99707,-0.40235 1.02832,-0.11084 z" />
      <path
         inkscape:connector-curvature="0"
         id="path3508"
         style="fill:#ed1248;fill-opacity:1;fill-rule:nonzero;stroke:#000000;stroke-width:0.125;stroke-linecap:butt;stroke-linejoin:miter;stroke-miterlimit:4;stroke-dasharray:none;stroke-opacity:1"
         d="m 313.4043,414.07568 c -0.47364,0.0513 -0.56836,-0.82422 -0.0947,-0.87548 0.47363,-0.0508 0.57471,0.82373 0.0947,0.87548 z" />
      <path
         inkscape:connector-curvature="0"
         id="path3536"
         style="fill:#1478c7;fill-opacity:1;fill-rule:nonzero;stroke:#000000;stroke-width:0.125;stroke-linecap:butt;stroke-linejoin:miter;stroke-miterlimit:4;stroke-dasharray:none;stroke-opacity:1"
         d="m 314.71045,422.19287 c 0.0586,-0.18408 -0.28711,-0.87207 -0.74805,-1.01807 -0.46142,-0.14648 -0.93603,0.0523 -1.06054,0.44385 -0.12452,0.3916 0.14892,0.82813 0.60986,0.97412 0.46142,0.14649 1.14014,-0.21582 1.19873,-0.3999 l -0.45508,-0.14453 c -0.0288,0.0908 -0.39746,0.25781 -0.62451,0.18555 -0.22705,-0.0718 -0.36133,-0.28662 -0.29981,-0.47901 0.061,-0.19287 0.29444,-0.29052 0.52149,-0.21826 0.22656,0.0718 0.43164,0.42139 0.40283,0.51172 l 0.45508,0.14453 z" />
      <path
         inkscape:connector-curvature="0"
         id="path3538"
         style="fill:#1478c7;fill-opacity:1;fill-rule:nonzero;stroke:#000000;stroke-width:0.125;stroke-linecap:butt;stroke-linejoin:miter;stroke-miterlimit:4;stroke-dasharray:none;stroke-opacity:1"
         d="m 314.79199,413.39307 c 0.26416,0.0102 0.28516,0.34179 0.2627,0.93652 l -0.27051,7.16797 c -0.0225,0.59473 -0.0679,0.92383 -0.33203,0.91406 -0.26416,-0.0103 -0.28516,-0.3418 -0.2627,-0.93652 l 0.27051,-7.16797 c 0.0225,-0.59473 0.0679,-0.92383 0.33203,-0.91406 z" />
      <path
         inkscape:connector-curvature="0"
         id="path3540"
         style="fill:#1478c7;fill-opacity:1;fill-rule:nonzero;stroke:#000000;stroke-width:0.125;stroke-linecap:butt;stroke-linejoin:miter;stroke-miterlimit:4;stroke-dasharray:none;stroke-opacity:1"
         d="m 315.3667,411.88184 c -0.0259,0.69433 -0.26611,1.52295 -0.57471,1.51123 -0.30859,-0.0112 -0.48535,-0.85596 -0.45898,-1.5503 0.0107,-0.28466 1.04492,-0.2539 1.03369,0.0391 z" />
      <path
         inkscape:connector-curvature="0"
         id="path3542"
         style="fill:#1478c7;fill-opacity:1;fill-rule:nonzero;stroke:#000000;stroke-width:0.125;stroke-linecap:butt;stroke-linejoin:miter;stroke-miterlimit:4;stroke-dasharray:none;stroke-opacity:1"
         d="m 314.77246,413.91309 c -0.47607,-0.0181 -0.44287,-0.89795 0.0332,-0.87989 0.47608,0.0176 0.44971,0.89795 -0.0332,0.87989 z" />
      <path
         inkscape:connector-curvature="0"
         id="path3544"
         style="fill:#1478c7;fill-opacity:1;fill-rule:nonzero;stroke:#000000;stroke-width:0.125;stroke-linecap:butt;stroke-linejoin:miter;stroke-miterlimit:4;stroke-dasharray:none;stroke-opacity:1"
         d="m 314.35205,422.63428 c -0.48779,0 -0.48779,-0.72754 0,-0.72754 0.48877,0 0.49561,0.72754 0,0.72754 z" />
    </g>
  </g>
</svg>
