<?xml version="1.0" encoding="utf-8"?>
<svg version="1.0" id="Layer_1" xmlns="http://www.w3.org/2000/svg" xmlns:xlink="http://www.w3.org/1999/xlink" x="0px" y="0px"
	 viewBox="0 0 272.4 318" style="enable-background:new 0 0 272.4 318;" xml:space="preserve">
<style type="text/css">
	.st0{fill:#F39200;stroke:#000000;stroke-width:3;stroke-linecap:round;stroke-linejoin:round;stroke-miterlimit:10;}
	.st1{fill:#C47800;stroke:#000000;stroke-width:3;stroke-linecap:round;stroke-linejoin:round;stroke-miterlimit:10;}
</style>
<path class="st0" d="M212.1,154.2L212.1,154.2c8-13.7,17.7-30.5,30.4-57.3c-3-8.3-6.4-16.2-10.2-23.6c-7.5-14.6-16.3-27.2-26-36.9
	c-9.6-9.6-20-16.2-30.8-19.1c-1.5-0.4-3-0.8-4.5-1c-1.5-0.3-3-0.4-4.4-0.5c-1.5-0.1-2.9-0.1-4.3-0.1c-1.4,0-2.8,0.2-4.2,0.4
	L67.5,28.6c1.3-0.2,77.1,77.6,77.1,77.5C165.2,119.4,187.1,132,212.1,154.2z"/>
<path class="st1" d="M130.7,109.7c0.3,0.2,17-4.2,17-4.2c20.5,13.2,39.3,26.5,64.3,48.7l0,0l-17,4.2
	C195.1,158.4,151.3,122.9,130.7,109.7z"/>
<path class="st1" d="M147.8,105.6c-2.4-6.2-5-12.1-7.7-17.8c-7.4-15.1-16-28-25.5-38C105.1,40,95,33.1,84.6,30
	c-10.3-3-20-2.1-28.6,2.2c-8.5,4.2-16,11.6-22.1,21.7c-6.1,9.9-10.8,22.4-14,36.8c-3.1,14.3-4.6,30.6-4.2,48.3
	c0.4,14.7,2,29.4,4.8,43.5l13.4-2.5c-2.3-11.5-3.7-23.5-3.9-35.6c-0.3-14.2,0.9-27.2,3.4-38.5c2.5-11.5,6.4-21.3,11.3-29.1
	c4.9-7.9,10.9-13.7,17.7-16.9c6.8-3.2,14.5-3.8,22.7-1.3c8.2,2.6,16.2,8.1,23.6,16c7.4,7.9,14.2,18.2,20,30.1
	c0.9,1.8,1.7,3.6,2.5,5.4C131.4,109.7,147.8,105.6,147.8,105.6z"/>
<path class="st0" d="M85,58.5c-8.2-2.6-15.8-1.9-22.7,1.3c-6.8,3.2-12.8,9-17.7,16.9c-4.9,7.8-8.7,17.7-11.3,29.1
	c-2.5,11.4-3.8,24.4-3.4,38.5c0.3,12,1.6,24,3.9,35.6l0.6-0.8c15.1-25.4,28.1-44.9,42.3-63.3c14.2,14.6,23.6,24.3,43.6,41.3
	l-0.2-0.3c-1.4-8.9-2.2-18.1-2.4-27.3c-0.2-11.8,0.8-22.7,2.8-32.6c0.3-1.7,0.7-3.4,1.1-5.1c-4.1-6.6-8.5-12.5-13.1-17.5
	C101.3,66.7,93.3,61.1,85,58.5z"/>
<g>
	<path class="st1" d="M76.8,115.9c-2.6,3.3-5.1,6.7-7.6,10.1c11,11.3,20.4,20.5,37.3,34.8l13.9-3.7
		C100.3,140.2,90.9,130.5,76.8,115.9z"/>
</g>
<g>
	<path class="st0" d="M154,235.5c-7-7.9-13.3-17.7-18.7-28.9c-2.2-4.6-4.2-9.4-6-14.3c-22.4-15-37.8-27.4-50.8-38.7
		c-10.6,17.1-25.5,31.5-39.8,59.2l29.3,60.5l67.3,6.5L154,235.5z"/>
</g>
<path class="st1" d="M44.1,214.7l-13.9,3.7c14.4-27.7,23.9-43.9,34.5-61l13.9-3.7C68,170.8,58.5,186.9,44.1,214.7z"/>
<path class="st1" d="M197.2,199.8c19.1-25.7,33.3-50.9,38.7-60.4l17-4.2c-5.4,9.5-19.6,34.7-38.7,60.4L197.2,199.8z"/>
<path class="st0" d="M252.8,135.2c-5.4,9.5-19.6,34.7-38.7,60.4c-16-17-29.2-30.6-55.1-51.6c-0.4-1.8-3.3,45.9-3.2,65.1
	c0.1,14.9-33.4,90.9-40.5,92.4l89.3-19c7.4-1.6,14.3-5.2,20.5-10.6c6.3-5.5,11.8-12.8,16.5-21.8c4.7-9,8.4-19.7,11-31.7
	c2.6-12.1,4-25.6,4.1-40.1C256.8,163.7,255.4,149.2,252.8,135.2z"/>
<path class="st1" d="M44,214.5c1.2,3,2.4,5.9,3.7,8.8c5.2,11.4,11.4,21.5,18.3,29.7c6.9,8.2,14.5,14.5,22.5,18
	c8.1,3.6,15.8,4.1,22.9,1.9c7.1-2.2,13.6-7.1,19-14.4c5.5-7.4,9.9-17.1,13-28.7c3.1-11.7,4.7-25.4,4.5-40.5
	c-0.1-13.3-1.6-26.5-4.2-39.3l15.4-5.4c3.5,16.5,5.4,33.8,5.6,51.1c0.2,19.3-2,36.6-5.9,51.5c-3.9,14.7-9.6,27-16.7,36.2
	c-7,9.1-15.2,15.2-24.3,17.8c-9,2.6-18.7,1.7-28.9-3c-10.1-4.6-19.6-12.6-28.2-23c-8.6-10.3-16.3-23.1-22.8-37.4
	c-2.8-6.2-5.5-12.8-7.8-19.5L44,214.5z"/>
</svg>
